<?xml version="1.0" encoding="UTF-8" standalone="no"?>
<svg
   version="1.1"
   viewBox="0 0 840 240"
   fill="none"
   stroke="none"
   stroke-linecap="square"
   stroke-miterlimit="10"
   id="svg79"
   sodipodi:docname="painel.svg"
   width="840"
   height="240"
   inkscape:version="1.1 (1:1.1+202105261517+ce6663b3b7)"
   xmlns:inkscape="http://www.inkscape.org/namespaces/inkscape"
   xmlns:sodipodi="http://sodipodi.sourceforge.net/DTD/sodipodi-0.dtd"
   xmlns:xlink="http://www.w3.org/1999/xlink"
   xmlns="http://www.w3.org/2000/svg"
   xmlns:svg="http://www.w3.org/2000/svg">
  <defs
     id="defs83">
    <linearGradient
       inkscape:collect="always"
       id="linearGradient25117">
      <stop
         style="stop-color:#2b2b2b;stop-opacity:1"
         offset="0"
         id="stop25113" />
      <stop
         style="stop-color:#444444;stop-opacity:1;"
         offset="0.45421484"
         id="stop29336" />
      <stop
         style="stop-color:#8e8e8e;stop-opacity:1"
         offset="1"
         id="stop25115" />
    </linearGradient>
    <linearGradient
       inkscape:collect="always"
       xlink:href="#linearGradient25117"
       id="linearGradient25119"
       x1="420.36679"
       y1="-99.030792"
       x2="420.36679"
       y2="-19.139879"
       gradientUnits="userSpaceOnUse"
       gradientTransform="matrix(0.98184527,0,0,1,7.6206127,0)" />
    <linearGradient
       inkscape:collect="always"
       xlink:href="#linearGradient25117"
       id="linearGradient36666"
       gradientUnits="userSpaceOnUse"
       gradientTransform="matrix(0.98184527,0,0,1,7.6206127,0)"
       x1="420.36679"
       y1="-99.030792"
       x2="420.36679"
       y2="-19.139879" />
    <linearGradient
       inkscape:collect="always"
       xlink:href="#linearGradient25117"
       id="linearGradient36682"
       gradientUnits="userSpaceOnUse"
       gradientTransform="matrix(0.98184527,0,0,1,7.6206127,0)"
       x1="420.36679"
       y1="-99.030792"
       x2="420.36679"
       y2="-19.139879" />
    <linearGradient
       inkscape:collect="always"
       xlink:href="#linearGradient25117"
       id="linearGradient36698"
       gradientUnits="userSpaceOnUse"
       gradientTransform="matrix(0.98184527,0,0,1,7.6206127,0)"
       x1="420.36679"
       y1="-99.030792"
       x2="420.36679"
       y2="-19.139879" />
  </defs>
  <sodipodi:namedview
     id="namedview81"
     pagecolor="#ffffff"
     bordercolor="#666666"
     borderopacity="1.0"
     inkscape:pageshadow="2"
     inkscape:pageopacity="0.0"
     inkscape:pagecheckerboard="0"
     showgrid="false"
     borderlayer="true"
     inkscape:zoom="1.3770833"
     inkscape:cx="416.45992"
     inkscape:cy="222.93495"
     inkscape:window-width="1920"
     inkscape:window-height="1080"
     inkscape:window-x="0"
     inkscape:window-y="0"
     inkscape:window-maximized="1"
     inkscape:current-layer="svg79"
     showguides="true"
     inkscape:guide-bbox="true" />
  <clipPath
     id="p.0">
    <path
       d="M 0,0 H 960 V 540 H 0 Z"
       clip-rule="nonzero"
       id="path2" />
  </clipPath>
  <g
     id="g928"
     transform="translate(24.83347,-3.395872)">
    <path
       fill="#efefef"
       d="m 278.38668,32.623866 v 0 c 0,-10.619325 8.60867,-19.227992 19.22801,-19.227992 h 195.10127 c 5.09956,0 9.99029,2.025798 13.59623,5.631747 3.60593,3.605948 5.63177,8.496668 5.63177,13.596245 V 214.16786 c 0,10.61934 -8.6087,19.228 -19.228,19.228 H 297.61469 c -10.61934,0 -19.22801,-8.60866 -19.22801,-19.228 z"
       fill-rule="evenodd"
       id="path7"
       style="stroke-width:1" />
    <path
       stroke="#b7b7b7"
       stroke-width="1"
       stroke-linejoin="round"
       stroke-linecap="butt"
       d="m 278.38668,32.623866 v 0 c 0,-10.619325 8.60867,-19.227992 19.22801,-19.227992 h 195.10127 c 5.09956,0 9.99029,2.025798 13.59623,5.631747 3.60593,3.605948 5.63177,8.496668 5.63177,13.596245 V 214.16786 c 0,10.61934 -8.6087,19.228 -19.228,19.228 H 297.61469 c -10.61934,0 -19.22801,-8.60866 -19.22801,-19.228 z"
       fill-rule="evenodd"
       id="path9" />
    <path
       fill="#b6d7a8"
       d="m 550.75383,29.646724 v 0 c 0,-8.975097 7.27575,-16.25085 16.25085,-16.25085 h 98.64879 c 4.30999,0 8.44346,1.712138 11.49108,4.759758 3.04763,3.04762 4.75977,7.181101 4.75977,11.491092 V 217.14502 c 0,8.9751 -7.27575,16.25085 -16.25085,16.25085 h -98.64879 v 0 c -8.9751,0 -16.25085,-7.27575 -16.25085,-16.25085 z"
       fill-rule="evenodd"
       id="path11"
       style="stroke-width:1" />
    <path
       fill="#dd7e6b"
       d="m 108.42634,29.646724 v 0 c 0,-8.975097 7.27576,-16.25085 16.25086,-16.25085 h 98.64878 c 4.31,0 8.44347,1.712138 11.4911,4.759758 3.04762,3.04762 4.75976,7.181101 4.75976,11.491092 V 217.14502 c 0,8.9751 -7.27576,16.25085 -16.25086,16.25085 H 124.6772 v 0 c -8.9751,0 -16.25086,-7.27575 -16.25086,-16.25085 z"
       fill-rule="evenodd"
       id="path13"
       style="stroke-width:1" />
    <path
       fill="#000000"
       fill-opacity="0"
       d="M 135.35418,96.705624 H 213.4272 V 207.28991 h -78.07302 z"
       fill-rule="evenodd"
       id="path15"
       style="stroke-width:1" />
    <path
       fill="#000000"
       fill-opacity="0"
       d="m 306.01034,96.705624 h 78.07301 V 207.28991 h -78.07301 z"
       fill-rule="evenodd"
       id="path24"
       style="stroke-width:1" />
    <path
       fill="#000000"
       fill-opacity="0"
       d="m 294.55624,58.347604 h 100.9812 v 38.80984 h -100.9812 z"
       fill-rule="evenodd"
       id="path33"
       style="stroke-width:1" />
    <path
       fill="#000000"
       d="m 325.65703,78.883704 1.6309,0.41855 q -0.51958,2.00616 -1.84739,3.07418 -1.32782,1.05359 -3.26181,1.05359 -1.99172,0 -3.24737,-0.80823 -1.24122,-0.82267 -1.90513,-2.35254 -0.64948,-1.54431 -0.64948,-3.31954 0,-1.91956 0.73608,-3.3484 0.73607,-1.44328 2.09275,-2.17936 1.37112,-0.7505 3.00201,-0.7505 1.8474,0 3.10305,0.93813 1.27009,0.93813 1.7608,2.65564 l -1.60204,0.37525 q -0.43298,-1.34226 -1.25565,-1.94843 -0.80823,-0.62061 -2.03502,-0.62061 -1.42884,0 -2.3814,0.67834 -0.95257,0.67834 -1.34226,1.83297 -0.38968,1.14018 -0.38968,2.36697 0,1.57317 0.46185,2.74223 0.46185,1.16905 1.42884,1.7608 0.967,0.57731 2.09276,0.57731 1.37111,0 2.32367,-0.79381 0.95256,-0.7938 1.28452,-2.35254 z m 3.69865,4.32983 v -12.34002 h 1.63091 v 5.06591 h 6.40815 v -5.06591 h 1.6309 v 12.34002 h -1.6309 v -5.81641 h -6.40815 v 5.81641 z m 20.484,-12.34002 h 1.6309 v 7.12979 q 0,1.86183 -0.41855,2.95872 -0.41855,1.09689 -1.51544,1.78967 -1.09689,0.67833 -2.88656,0.67833 -1.73193,0 -2.84325,-0.59174 -1.09689,-0.60617 -1.57318,-1.73193 -0.46184,-1.14019 -0.46184,-3.10305 v -7.12979 h 1.6309 v 7.12979 q 0,1.60204 0.28866,2.36697 0.30308,0.75051 1.02472,1.16906 0.73608,0.41855 1.78967,0.41855 1.8041,0 2.56903,-0.82267 0.76494,-0.82267 0.76494,-3.13191 z m 7.86972,12.34002 -4.77724,-12.34002 h 1.77522 l 3.20408,8.96276 q 0.38969,1.08245 0.64948,2.02058 0.28865,-1.01029 0.6639,-2.02058 l 3.33397,-8.96276 h 1.65977 l -4.83498,12.34002 z m 5.33612,0 4.73395,-12.34002 h 1.7608 l 5.05147,12.34002 h -1.86183 l -1.42884,-3.73809 h -5.16693 l -1.35668,3.73809 z m 3.56489,-5.0659 h 4.18551 l -1.29895,-3.42057 q -0.57731,-1.55874 -0.86597,-2.5546 -0.24535,1.18349 -0.6639,2.35254 z"
       fill-rule="nonzero"
       id="path35"
       style="stroke-width:1" />
    <path
       fill="#000000"
       fill-opacity="0"
       d="M 123.89889,31.657041 H 224.88011 V 79.427464 H 123.89889 Z"
       fill-rule="evenodd"
       id="path37"
       style="stroke-width:1" />
    <path
       fill="#ffffff"
       d="M 146.87287,63.616964 V 46.138871 h 3.55047 v 14.504943 h 8.84728 v 2.97315 z m 14.83823,0 V 45.994543 h 3.55047 v 17.622421 z m 15.13971,-6.48032 v -2.97315 h 7.67825 v 7.02876 q -1.12575,1.08246 -3.24738,1.90513 -2.12163,0.82266 -4.30097,0.82266 -2.75666,0 -4.82055,-1.15462 -2.04945,-1.16905 -3.08861,-3.31954 -1.02473,-2.16491 -1.02473,-4.70508 0,-2.756655 1.15462,-4.892706 1.15462,-2.13605 3.37727,-3.276244 1.68864,-0.880394 4.21437,-0.880394 3.27624,0 5.12364,1.385546 1.8474,1.371109 2.38142,3.795815 l -3.53604,0.663907 q -0.37526,-1.298949 -1.39999,-2.049453 -1.02472,-0.750505 -2.56903,-0.750505 -2.33811,0 -3.70922,1.486581 -1.37112,1.472142 -1.37112,4.373123 0,3.14635 1.38555,4.71952 1.39998,1.55874 3.66592,1.55874 1.11133,0 2.23709,-0.43298 1.12575,-0.44742 1.93399,-1.06803 v -2.23708 z m 26.84471,6.48032 h -3.86798 l -1.52988,-3.99788 h -7.05763 l -1.44328,3.99788 h -3.78138 l 6.87,-17.622421 h 3.75252 z m -6.55248,-6.97103 -2.42471,-6.538046 -2.38141,6.538046 z"
       fill-rule="nonzero"
       id="path39"
       style="stroke-width:1" />
    <path
       fill="#000000"
       fill-opacity="0"
       d="m 406.99154,96.705624 h 78.07302 V 207.28991 h -78.07302 z"
       fill-rule="evenodd"
       id="path41"
       style="stroke-width:1" />
    <path
       fill="#000000"
       fill-opacity="0"
       d="m 395.53746,58.347604 h 100.98127 v 38.80984 H 395.53746 Z"
       fill-rule="evenodd"
       id="path50"
       style="stroke-width:1" />
    <path
       fill="#000000"
       d="m 416.74364,83.213534 v -12.34002 h 5.47002 q 1.64534,0 2.49687,0.33196 0.86597,0.33195 1.37111,1.18348 0.51958,0.83711 0.51958,1.86183 0,1.29895 -0.85153,2.20822 -0.85154,0.89483 -2.62676,1.14018 0.64947,0.31752 0.99585,0.62061 0.70722,0.64947 1.34226,1.6309 l 2.15048,3.36284 h -2.04946 l -1.6309,-2.56903 q -0.72164,-1.11133 -1.18348,-1.68864 -0.46185,-0.59174 -0.8371,-0.82266 -0.36083,-0.24536 -0.73608,-0.33196 -0.27422,-0.0721 -0.90926,-0.0721 h -1.8907 v 5.48445 z m 1.6309,-6.88443 h 3.50717 q 1.12576,0 1.74636,-0.23093 0.63504,-0.24535 0.967,-0.7505 0.33195,-0.50514 0.33195,-1.09689 0,-0.8804 -0.63504,-1.44328 -0.63504,-0.56287 -2.02059,-0.56287 h -3.89685 z m 10.81404,6.88443 v -12.34002 h 8.91946 v 1.45771 h -7.27412 v 3.78139 h 6.81227 v 1.44328 h -6.81227 v 4.19993 h 7.56277 v 1.45771 z m 19.56202,-12.34002 h 1.6309 v 7.12979 q 0,1.86183 -0.41855,2.95872 -0.41855,1.09689 -1.51544,1.78967 -1.09689,0.67833 -2.88656,0.67833 -1.73193,0 -2.84325,-0.59174 -1.09689,-0.60617 -1.57318,-1.73193 -0.46184,-1.14019 -0.46184,-3.10305 v -7.12979 h 1.6309 v 7.12979 q 0,1.60204 0.28866,2.36697 0.30308,0.75051 1.02472,1.16906 0.73608,0.41855 1.78967,0.41855 1.8041,0 2.56903,-0.82267 0.76494,-0.82267 0.76494,-3.13191 z m 3.79969,8.37101 1.52987,-0.12989 q 0.11546,0.92369 0.50514,1.51543 0.40412,0.59175 1.24122,0.967 0.85154,0.36082 1.90513,0.36082 0.92369,0 1.64533,-0.27422 0.72164,-0.27423 1.06803,-0.7505 0.34638,-0.49072 0.34638,-1.06803 0,-0.57731 -0.34638,-1.01029 -0.33195,-0.43299 -1.09689,-0.73608 -0.50515,-0.18762 -2.20821,-0.59174 -1.68864,-0.41855 -2.36698,-0.77937 -0.89483,-0.46185 -1.32781,-1.14019 -0.43299,-0.69277 -0.43299,-1.5443 0,-0.9237 0.53401,-1.73194 0.53402,-0.82267 1.54431,-1.24122 1.02473,-0.41855 2.26594,-0.41855 1.37112,0 2.41028,0.44742 1.05359,0.43298 1.61647,1.29895 0.56288,0.85153 0.60618,1.93399 l -1.55874,0.11546 q -0.1299,-1.16906 -0.86597,-1.76079 -0.72164,-0.60618 -2.13605,-0.60618 -1.48658,0 -2.16491,0.54844 -0.67835,0.54845 -0.67835,1.31338 0,0.66391 0.49072,1.08246 0.46184,0.43299 2.45357,0.89484 1.99172,0.44741 2.7278,0.77937 1.08245,0.49071 1.5876,1.25564 0.51958,0.76494 0.51958,1.7608 0,0.98143 -0.56288,1.86183 -0.56288,0.86597 -1.61647,1.35668 -1.05359,0.47628 -2.38141,0.47628 -1.6742,0 -2.81439,-0.49071 -1.12576,-0.49072 -1.77523,-1.47215 -0.63504,-0.98142 -0.6639,-2.22264 z m 11.55182,-2.03502 q 0,-3.07418 1.64534,-4.80612 1.64533,-1.74636 4.25763,-1.74636 1.70307,0 3.07419,0.82267 1.37111,0.80823 2.09275,2.28037 0.72163,1.45772 0.72163,3.30511 0,1.87626 -0.76493,3.36283 -0.7505,1.47215 -2.13605,2.23709 -1.38555,0.76493 -3.00202,0.76493 -1.7319,0 -3.10302,-0.8371 -1.37111,-0.85153 -2.07832,-2.30924 -0.7072,-1.45771 -0.7072,-3.07418 z m 1.6742,0.0144 q 0,2.23708 1.19792,3.5216 1.19792,1.28452 3.01642,1.28452 1.8474,0 3.03089,-1.29895 1.18348,-1.29895 1.18348,-3.68036 0,-1.50101 -0.50515,-2.62677 -0.50514,-1.12575 -1.48657,-1.73193 -0.98143,-0.6206 -2.19378,-0.6206 -1.74634,0 -3.00199,1.19791 -1.24122,1.18349 -1.24122,3.95458 z"
       fill-rule="nonzero"
       id="path52"
       style="stroke-width:1" />
    <path
       fill="#000000"
       fill-opacity="0"
       d="m 580.04298,96.705624 h 78.07307 V 207.28991 h -78.07307 z"
       fill-rule="evenodd"
       id="path54"
       style="stroke-width:1" />
    <path
       fill="#000000"
       fill-opacity="0"
       d="m 550.75623,23.901464 h 131.15049 v 59.69848 H 550.75623 Z"
       fill-rule="evenodd"
       id="path63"
       style="stroke-width:1" />
    <path
       fill="#000000"
       d="M 594.44056,48.7674 V 38.188173 h 2.10719 l 2.5113,7.490614 q 0.34639,1.039159 0.50514,1.558739 0.1732,-0.577311 0.56288,-1.688639 l 2.52574,-7.360714 h 1.89069 V 48.7674 h -1.35668 v -8.861722 l -3.07418,8.861722 h -1.25565 l -3.05975,-9.00605 v 9.00605 z m 11.9359,-5.152504 q 0,-2.641193 1.41441,-4.127773 1.41441,-1.486571 3.6515,-1.486571 1.4577,0 2.62676,0.707201 1.18349,0.692773 1.8041,1.948429 0.62061,1.241218 0.62061,2.828823 0,1.616471 -0.64948,2.886555 -0.64947,1.270084 -1.8474,1.933991 -1.18348,0.649471 -2.56903,0.649471 -1.48657,0 -2.67006,-0.721639 -1.16906,-0.736067 -1.77523,-1.977285 -0.60618,-1.255656 -0.60618,-2.641202 z m 1.44328,0.01441 q 0,1.919554 1.02473,3.016445 1.02472,1.096891 2.58346,1.096891 1.57318,0 2.5979,-1.111319 1.02473,-1.111328 1.02473,-3.146344 0,-1.29895 -0.44742,-2.251513 -0.43298,-0.967 -1.27008,-1.501008 -0.8371,-0.534018 -1.89069,-0.534018 -1.48658,0 -2.55461,1.024732 -1.06802,1.024722 -1.06802,3.406134 z m 10.47098,5.138067 V 38.188145 h 3.65149 q 1.22678,0 1.87626,0.144328 0.90926,0.216496 1.55874,0.764942 0.8371,0.707201 1.24122,1.804092 0.41855,1.09689 0.41855,2.511302 0,1.212353 -0.28866,2.150488 -0.27422,0.923697 -0.72164,1.529874 -0.43298,0.606176 -0.95256,0.966991 -0.51958,0.346387 -1.27008,0.534017 -0.73607,0.173193 -1.68863,0.173193 z m 1.39998,-1.255655 h 2.26594 q 1.03916,0 1.63091,-0.187622 0.60618,-0.202059 0.95256,-0.548445 0.50514,-0.505152 0.77937,-1.342253 0.27422,-0.837101 0.27422,-2.035016 0,-1.659774 -0.54845,-2.554606 -0.534,-0.894831 -1.31337,-1.197915 -0.56289,-0.216496 -1.81853,-0.216496 h -2.22265 z m 8.8545,-3.896849 q 0,-2.641193 1.41441,-4.127773 1.41441,-1.486571 3.6515,-1.486571 1.4577,0 2.62676,0.707201 1.18349,0.692773 1.80409,1.948429 0.62062,1.241219 0.62062,2.828824 0,1.61647 -0.64948,2.886554 -0.64947,1.270084 -1.8474,1.933992 -1.18348,0.64947 -2.56903,0.64947 -1.48657,0 -2.67006,-0.721639 -1.16906,-0.736067 -1.77523,-1.977285 -0.60618,-1.255656 -0.60618,-2.641202 z m 1.44328,0.01441 q 0,1.919554 1.02473,3.016445 1.02472,1.09689 2.58346,1.09689 1.57318,0 2.5979,-1.111319 1.02473,-1.111328 1.02473,-3.146344 0,-1.29895 -0.44742,-2.251513 -0.43298,-0.967 -1.27008,-1.501008 -0.8371,-0.534017 -1.89069,-0.534017 -1.48658,0 -2.55461,1.024731 -1.06802,1.024722 -1.06802,3.406135 z"
       fill-rule="nonzero"
       id="path65"
       style="stroke-width:1" />
    <path
       fill="#000000"
       d="m 600.90192,69.458214 v -12.34003 h 4.66178 q 1.22679,0 1.87626,0.11547 0.89483,0.15876 1.51545,0.59175 0.6206,0.41854 0.99585,1.18348 0.37525,0.76493 0.37525,1.68863 0,1.57318 -1.01029,2.67007 -0.99586,1.08245 -3.62262,1.08245 h -3.16078 v 5.00818 z m 1.6309,-6.46588 h 3.18964 q 1.58761,0 2.25152,-0.59175 0.6639,-0.59174 0.6639,-1.65976 0,-0.77937 -0.38968,-1.32782 -0.38969,-0.54845 -1.03916,-0.72164 -0.40412,-0.11546 -1.51544,-0.11546 h -3.16078 z m 9.89209,6.46588 v -12.34003 h 8.91945 v 1.45772 h -7.27412 v 3.78139 h 6.81227 v 1.44327 h -6.81227 v 4.19994 h 7.56277 v 1.45771 z m 14.61155,0 v -10.88231 h -4.07004 v -1.45772 h 9.77098 v 1.45772 h -4.07004 v 10.88231 z"
       fill-rule="nonzero"
       id="path67"
       style="stroke-width:1" />
    <path
       fill="#000000"
       fill-opacity="0"
       d="m 294.55867,20.541644 h 201.96241 v 35.81328 H 294.55867 Z"
       fill-rule="evenodd"
       id="path69"
       style="stroke-width:1" />
    <path
       fill="#000000"
       d="m 331.38621,37.890419 q 0,-2.641202 1.41441,-4.127773 1.41441,-1.48658 3.65149,-1.48658 1.45771,0 2.62676,0.70721 1.18349,0.692773 1.8041,1.94842 0.62061,1.241218 0.62061,2.828824 0,1.61647 -0.64947,2.886554 -0.64948,1.270084 -1.8474,1.933992 -1.18348,0.649479 -2.56903,0.649479 -1.48658,0 -2.67007,-0.721639 -1.16905,-0.736076 -1.77522,-1.977294 -0.60618,-1.255647 -0.60618,-2.641193 z m 1.44328,0.01441 q 0,1.919563 1.02472,3.016454 1.02473,1.096891 2.58347,1.096891 1.57317,0 2.5979,-1.111328 1.02472,-1.111319 1.02472,-3.146345 0,-1.29895 -0.44741,-2.251513 -0.43298,-0.966991 -1.27008,-1.501008 -0.8371,-0.534008 -1.8907,-0.534008 -1.48657,0 -2.5546,1.024722 -1.06802,1.024732 -1.06802,3.406135 z m 10.49984,5.138067 V 32.463678 h 4.69065 q 1.41441,0 2.15049,0.288655 0.73606,0.274218 1.16905,0.995857 0.44742,0.721639 0.44742,1.602043 0,1.125756 -0.73608,1.905126 -0.72164,0.764932 -2.25151,0.966991 0.56288,0.274227 0.85154,0.534017 0.60617,0.562874 1.15462,1.399974 l 1.84739,2.886555 h -1.7608 l -1.39998,-2.20821 q -0.6206,-0.952563 -1.02472,-1.457714 -0.38969,-0.505143 -0.70721,-0.707202 -0.30309,-0.202058 -0.63504,-0.274227 -0.23093,-0.05773 -0.77937,-0.05773 h -1.61647 v 4.705084 z m 1.39998,-5.917437 h 3.00201 q 0.967,0 1.50101,-0.187621 0.54845,-0.202059 0.82267,-0.635042 0.28866,-0.447421 0.28866,-0.952563 0,-0.750505 -0.54845,-1.226791 -0.54844,-0.490714 -1.7175,-0.490714 h -3.3484 z m 9.48955,5.917437 V 32.463678 h 1.39997 v 10.579218 z m 8.8112,-4.156639 v -1.241218 h 4.4886 v 3.925714 q -1.03916,0.822673 -2.13605,1.241219 -1.09689,0.418555 -2.25151,0.418555 -1.55874,0 -2.82883,-0.663908 -1.27008,-0.678345 -1.91956,-1.933992 -0.64947,-1.270084 -0.64947,-2.828823 0,-1.544311 0.63504,-2.886555 0.64947,-1.342252 1.86182,-1.991722 1.21236,-0.64948 2.79996,-0.64948 1.1402,0 2.06389,0.375252 0.93813,0.375252 1.45771,1.03916 0.53402,0.663908 0.80823,1.731933 l -1.27008,0.346386 q -0.23092,-0.808235 -0.59174,-1.270084 -0.34639,-0.461848 -1.01029,-0.736066 -0.64948,-0.288656 -1.45772,-0.288656 -0.95256,0 -1.65976,0.303084 -0.69278,0.288655 -1.12576,0.764941 -0.43298,0.476277 -0.66391,1.03916 -0.40411,0.981428 -0.40411,2.13605 0,1.414412 0.47627,2.366975 0.49072,0.952563 1.41441,1.414412 0.93814,0.461849 1.99173,0.461849 0.90927,0 1.77523,-0.346387 0.86597,-0.360824 1.31338,-0.750504 v -1.977295 z m 6.57413,4.156639 V 32.463678 h 7.64937 v 1.241218 h -6.24939 v 3.24737 h 5.8597 v 1.241218 h -5.8597 v 3.593765 h 6.49474 v 1.255647 z m 9.78542,0 V 32.463678 h 2.10719 l 2.5113,7.490605 q 0.34639,1.039159 0.50514,1.558739 0.1732,-0.577311 0.56288,-1.68863 l 2.52574,-7.360714 h 1.89069 v 10.579218 h -1.35668 v -8.861723 l -3.07418,8.861723 h -1.25565 l -3.05975,-9.00605 v 9.00605 z m 16.46058,0 V 32.463678 h 3.65149 q 1.22678,0 1.87626,0.144328 0.90926,0.216487 1.55874,0.764932 0.8371,0.707211 1.24122,1.804101 0.41855,1.096891 0.41855,2.511303 0,1.212353 -0.28866,2.150478 -0.27422,0.923698 -0.72164,1.529874 -0.43298,0.606177 -0.95256,0.967001 -0.51958,0.346386 -1.27008,0.534008 -0.73607,0.173193 -1.68863,0.173193 z m 1.39998,-1.255647 h 2.26594 q 1.03916,0 1.63091,-0.18763 0.60618,-0.202059 0.95256,-0.548446 0.50515,-0.505142 0.77937,-1.342243 0.27422,-0.837101 0.27422,-2.035026 0,-1.659764 -0.54844,-2.554596 -0.53401,-0.894832 -1.31338,-1.197925 -0.56289,-0.216487 -1.81853,-0.216487 h -2.22265 z m 8.104,1.255647 4.07004,-10.579218 h 1.51544 l 4.32986,10.579218 h -1.60204 l -1.22681,-3.204076 h -4.43086 l -1.15463,3.204076 z m 3.05974,-4.34426 h 3.59377 l -1.11133,-2.929858 q -0.50514,-1.342243 -0.7505,-2.193781 -0.20206,1.010294 -0.56288,2.020588 z m 10.08854,4.34426 4.07005,-10.579218 h 1.51543 l 4.32984,10.579218 h -1.60204 l -1.22679,-3.204076 h -4.43085 l -1.15463,3.204076 z m 3.05975,-4.34426 h 3.59376 l -1.11132,-2.929858 q -0.50515,-1.342243 -0.7505,-2.193781 -0.20206,1.010294 -0.56289,2.020588 z m 0.8804,-6.884437 0.967,-2.020589 h 1.70306 l -1.5876,2.020589 z m 12.03693,7.072058 v -1.241218 h 4.4886 v 3.925714 q -1.03916,0.822673 -2.13605,1.241219 -1.09689,0.418555 -2.25152,0.418555 -1.55874,0 -2.82882,-0.663908 -1.27008,-0.678345 -1.91956,-1.933992 -0.64947,-1.270084 -0.64947,-2.828823 0,-1.544311 0.63504,-2.886555 0.64947,-1.342252 1.86182,-1.991722 1.21235,-0.64948 2.79996,-0.64948 1.14019,0 2.06389,0.375252 0.93813,0.375252 1.45771,1.03916 0.53401,0.663908 0.80823,1.731933 l -1.27008,0.346386 q -0.23093,-0.808235 -0.59174,-1.270084 -0.34639,-0.461848 -1.0103,-0.736066 -0.64947,-0.288656 -1.45771,-0.288656 -0.95256,0 -1.65976,0.303084 -0.69278,0.288655 -1.12576,0.764941 -0.43298,0.476277 -0.66391,1.03916 -0.40412,0.981428 -0.40412,2.13605 0,1.414412 0.47628,2.366975 0.49072,0.952563 1.41441,1.414412 0.93814,0.461849 1.99173,0.461849 0.90926,0 1.77523,-0.346387 0.86597,-0.360824 1.31338,-0.750504 v -1.977295 z m 13.48743,-6.422579 h 1.39998 v 6.105058 q 0,1.602043 -0.36082,2.540168 -0.36082,0.938135 -1.29895,1.529874 -0.93813,0.591749 -2.46801,0.591749 -1.48657,0 -2.43913,-0.51958 -0.93813,-0.51958 -1.34225,-1.48658 -0.40412,-0.966992 -0.40412,-2.655631 v -6.105058 h 1.39998 v 6.105058 q 0,1.371118 0.24536,2.035026 0.25979,0.64947 0.8804,1.010294 0.63504,0.346387 1.52987,0.346387 1.54431,0 2.19379,-0.692774 0.6639,-0.70721 0.6639,-2.698933 z m 2.56181,10.579218 4.07005,-10.579218 h 1.51544 l 4.32983,10.579218 h -1.60204 l -1.22678,-3.204076 h -4.43087 l -1.15462,3.204076 z m 3.05975,-4.34426 h 3.59377 l -1.11133,-2.929858 q -0.50514,-1.342243 -0.75051,-2.193781 -0.20205,1.010294 -0.56287,2.020588 z"
       fill-rule="nonzero"
       id="path71"
       style="stroke-width:1" />
    <path
       fill="#000000"
       fill-opacity="0"
       d="M 294.55867,56.191714 H 496.52108"
       fill-rule="evenodd"
       id="path73"
       style="stroke-width:1" />
    <path
       stroke="#999999"
       stroke-width="1"
       stroke-linejoin="round"
       stroke-linecap="butt"
       d="M 294.55867,56.191714 H 496.52108"
       fill-rule="evenodd"
       id="path75" />
    <g
       id="g36196"
       transform="matrix(0.92369747,0,0,0.92369747,-215.67908,217.88727)"
       style="stroke-width:1.08261">
      <rect
         style="font-variation-settings:normal;opacity:1;vector-effect:none;fill:#454545;fill-opacity:1;stroke:none;stroke-width:1.08261;stroke-linecap:butt;stroke-linejoin:miter;stroke-miterlimit:10;stroke-dasharray:none;stroke-dashoffset:0;stroke-opacity:1;-inkscape-stroke:none;stop-color:#000000;stop-opacity:1"
         id="rect1685"
         width="80"
         height="120"
         x="380.03055"
         y="-131.47276"
         rx="5.4130278"
         ry="5.4130278" />
      <path
         id="rect6999"
         style="opacity:1;vector-effect:none;fill:#222222;fill-opacity:1;stroke-width:1.0826;stroke-linecap:butt;stop-color:#000000;stop-opacity:1"
         d="m 394.1813,-127.41922 h 51.69849 c 2.77,0 4.47928,1.84605 5,4 8.6781,35.896846 7.3317,70.331415 0,103.892906 -0.47294,2.164943 -2.23,4 -5,4 H 394.1813 c -2.77,0 -4.41344,-1.86304 -5,-4 -10.21052,-37.198794 -6.93253,-71.005388 0,-103.892906 0.45708,-2.16835 2.23,-4 5,-4 z"
         sodipodi:nodetypes="sssssssss" />
      <path
         id="path7391"
         style="opacity:1;vector-effect:none;fill:url(#linearGradient25119);fill-opacity:1;stroke-width:1.0826;stroke-linecap:butt;stop-color:#000000;stop-opacity:1"
         d="m 395.62752,-98.066406 c -2.71971,0 -4.46044,0.86966 -4.90922,1.90039 -4.27356,9.815267 -6.83451,19.803249 -6.35513,32.511027 0.47937,12.707778 1.05445,28.103182 5.3736,44.129598 0.57591,2.13696 2.18951,4 4.90922,4 h 50.75872 c 2.71971,0 4.44487,-1.835057 4.90923,-4 3.2735,-15.261841 4.0374,-30.708382 4.72458,-43.483624 0.68717,-12.775242 -0.55372,-22.838426 -5.7062,-33.157001 -0.51127,-1.023885 -2.18952,-1.90039 -4.90923,-1.90039 z"
         sodipodi:nodetypes="sscsssscsss" />
      <rect
         style="font-variation-settings:normal;opacity:1;vector-effect:none;fill:#ffffff;fill-opacity:1;stroke:none;stroke-width:1.08261;stroke-linecap:butt;stroke-linejoin:miter;stroke-miterlimit:10;stroke-dasharray:none;stroke-dashoffset:0;stroke-opacity:1;-inkscape-stroke:none;stop-color:#000000;stop-opacity:1"
         id="rect29534"
         width="3.3032477"
         height="19.483843"
         x="418.59995"
         y="-92.543144"
         rx="1.6193401"
         ry="1.6193401" />
      <path
         id="path29656"
         style="opacity:1;vector-effect:none;fill:#ffffff;stroke-width:1.08261;stroke-linecap:butt;stop-color:#000000;stop-opacity:1"
         d="m 419.7595,-53.745779 a 13.057076,13.057076 0 0 0 -13.05736,13.057353 13.057076,13.057076 0 0 0 13.05736,13.055955 13.057076,13.057076 0 0 0 13.05595,-13.055955 13.057076,13.057076 0 0 0 -13.05595,-13.057353 z m 0,2.456375 a 10.599938,10.599938 0 0 1 10.59957,10.600978 10.599938,10.599938 0 0 1 -10.59957,10.59958 10.599938,10.599938 0 0 1 -10.60098,-10.59958 10.599938,10.599938 0 0 1 10.60098,-10.600978 z" />
      <path
         id="path30487"
         style="opacity:1;vector-effect:none;fill:#8e8e8e;fill-opacity:1;stroke-width:1.0826;stroke-linecap:butt;stop-color:#000000;stop-opacity:1"
         d="m 449.75,-123.82031 -1.82617,25.517576 c 1.00078,0.403802 1.81999,0.943628 2.21484,1.734375 3.7818,7.573584 5.44172,15.069766 5.83594,23.484375 -0.0227,-16.423182 -1.85659,-33.106996 -5.9707,-50.124996 -0.0528,-0.21822 -0.17231,-0.40509 -0.25391,-0.61133 z" />
    </g>
    <g
       id="g36664"
       transform="matrix(0.92369747,0,0,0.92369747,-43.571537,217.88727)"
       style="stroke-width:1.08261">
      <rect
         style="font-variation-settings:normal;opacity:1;vector-effect:none;fill:#454545;fill-opacity:1;stroke:none;stroke-width:1.08261;stroke-linecap:butt;stroke-linejoin:miter;stroke-miterlimit:10;stroke-dasharray:none;stroke-dashoffset:0;stroke-opacity:1;-inkscape-stroke:none;stop-color:#000000;stop-opacity:1"
         id="rect36652"
         width="80"
         height="120"
         x="380.03055"
         y="-131.47276"
         rx="5.4130278"
         ry="5.4130278" />
      <path
         id="path36654"
         style="opacity:1;vector-effect:none;fill:#222222;fill-opacity:1;stroke-width:1.0826;stroke-linecap:butt;stop-color:#000000;stop-opacity:1"
         d="m 394.1813,-127.41922 h 51.69849 c 2.77,0 4.47928,1.84605 5,4 8.6781,35.896846 7.3317,70.331415 0,103.892906 -0.47294,2.164943 -2.23,4 -5,4 H 394.1813 c -2.77,0 -4.41344,-1.86304 -5,-4 -10.21052,-37.198794 -6.93253,-71.005388 0,-103.892906 0.45708,-2.16835 2.23,-4 5,-4 z"
         sodipodi:nodetypes="sssssssss" />
      <path
         id="path36656"
         style="opacity:1;vector-effect:none;fill:url(#linearGradient36666);fill-opacity:1;stroke-width:1.0826;stroke-linecap:butt;stop-color:#000000;stop-opacity:1"
         d="m 395.62752,-98.066406 c -2.71971,0 -4.46044,0.86966 -4.90922,1.90039 -4.27356,9.815267 -6.83451,19.803249 -6.35513,32.511027 0.47937,12.707778 1.05445,28.103182 5.3736,44.129598 0.57591,2.13696 2.18951,4 4.90922,4 h 50.75872 c 2.71971,0 4.44487,-1.835057 4.90923,-4 3.2735,-15.261841 4.0374,-30.708382 4.72458,-43.483624 0.68717,-12.775242 -0.55372,-22.838426 -5.7062,-33.157001 -0.51127,-1.023885 -2.18952,-1.90039 -4.90923,-1.90039 z"
         sodipodi:nodetypes="sscsssscsss" />
      <rect
         style="font-variation-settings:normal;opacity:1;vector-effect:none;fill:#ffffff;fill-opacity:1;stroke:none;stroke-width:1.08261;stroke-linecap:butt;stroke-linejoin:miter;stroke-miterlimit:10;stroke-dasharray:none;stroke-dashoffset:0;stroke-opacity:1;-inkscape-stroke:none;stop-color:#000000;stop-opacity:1"
         id="rect36658"
         width="3.3032477"
         height="19.483843"
         x="418.59995"
         y="-92.543144"
         rx="1.6193401"
         ry="1.6193401" />
      <path
         id="path36660"
         style="opacity:1;vector-effect:none;fill:#ffffff;stroke-width:1.08261;stroke-linecap:butt;stop-color:#000000;stop-opacity:1"
         d="m 419.7595,-53.745779 a 13.057076,13.057076 0 0 0 -13.05736,13.057353 13.057076,13.057076 0 0 0 13.05736,13.055955 13.057076,13.057076 0 0 0 13.05595,-13.055955 13.057076,13.057076 0 0 0 -13.05595,-13.057353 z m 0,2.456375 a 10.599938,10.599938 0 0 1 10.59957,10.600978 10.599938,10.599938 0 0 1 -10.59957,10.59958 10.599938,10.599938 0 0 1 -10.60098,-10.59958 10.599938,10.599938 0 0 1 10.60098,-10.600978 z" />
      <path
         id="path36662"
         style="opacity:1;vector-effect:none;fill:#8e8e8e;fill-opacity:1;stroke-width:1.0826;stroke-linecap:butt;stop-color:#000000;stop-opacity:1"
         d="m 449.75,-123.82031 -1.82617,25.517576 c 1.00078,0.403802 1.81999,0.943628 2.21484,1.734375 3.7818,7.573584 5.44172,15.069766 5.83594,23.484375 -0.0227,-16.423182 -1.85659,-33.106996 -5.9707,-50.124996 -0.0528,-0.21822 -0.17231,-0.40509 -0.25391,-0.61133 z" />
    </g>
    <g
       id="g36680"
       transform="matrix(0.92369747,0,0,0.92369747,56.568353,217.88727)"
       style="stroke-width:1.08261">
      <rect
         style="font-variation-settings:normal;opacity:1;vector-effect:none;fill:#454545;fill-opacity:1;stroke:none;stroke-width:1.08261;stroke-linecap:butt;stroke-linejoin:miter;stroke-miterlimit:10;stroke-dasharray:none;stroke-dashoffset:0;stroke-opacity:1;-inkscape-stroke:none;stop-color:#000000;stop-opacity:1"
         id="rect36668"
         width="80"
         height="120"
         x="380.03055"
         y="-131.47276"
         rx="5.4130278"
         ry="5.4130278" />
      <path
         id="path36670"
         style="opacity:1;vector-effect:none;fill:#222222;fill-opacity:1;stroke-width:1.0826;stroke-linecap:butt;stop-color:#000000;stop-opacity:1"
         d="m 394.1813,-127.41922 h 51.69849 c 2.77,0 4.47928,1.84605 5,4 8.6781,35.896846 7.3317,70.331415 0,103.892906 -0.47294,2.164943 -2.23,4 -5,4 H 394.1813 c -2.77,0 -4.41344,-1.86304 -5,-4 -10.21052,-37.198794 -6.93253,-71.005388 0,-103.892906 0.45708,-2.16835 2.23,-4 5,-4 z"
         sodipodi:nodetypes="sssssssss" />
      <path
         id="path36672"
         style="opacity:1;vector-effect:none;fill:url(#linearGradient36682);fill-opacity:1;stroke-width:1.0826;stroke-linecap:butt;stop-color:#000000;stop-opacity:1"
         d="m 395.62752,-98.066406 c -2.71971,0 -4.46044,0.86966 -4.90922,1.90039 -4.27356,9.815267 -6.83451,19.803249 -6.35513,32.511027 0.47937,12.707778 1.05445,28.103182 5.3736,44.129598 0.57591,2.13696 2.18951,4 4.90922,4 h 50.75872 c 2.71971,0 4.44487,-1.835057 4.90923,-4 3.2735,-15.261841 4.0374,-30.708382 4.72458,-43.483624 0.68717,-12.775242 -0.55372,-22.838426 -5.7062,-33.157001 -0.51127,-1.023885 -2.18952,-1.90039 -4.90923,-1.90039 z"
         sodipodi:nodetypes="sscsssscsss" />
      <rect
         style="font-variation-settings:normal;opacity:1;vector-effect:none;fill:#ffffff;fill-opacity:1;stroke:none;stroke-width:1.08261;stroke-linecap:butt;stroke-linejoin:miter;stroke-miterlimit:10;stroke-dasharray:none;stroke-dashoffset:0;stroke-opacity:1;-inkscape-stroke:none;stop-color:#000000;stop-opacity:1"
         id="rect36674"
         width="3.3032477"
         height="19.483843"
         x="418.59995"
         y="-92.543144"
         rx="1.6193401"
         ry="1.6193401" />
      <path
         id="path36676"
         style="opacity:1;vector-effect:none;fill:#ffffff;stroke-width:1.08261;stroke-linecap:butt;stop-color:#000000;stop-opacity:1"
         d="m 419.7595,-53.745779 a 13.057076,13.057076 0 0 0 -13.05736,13.057353 13.057076,13.057076 0 0 0 13.05736,13.055955 13.057076,13.057076 0 0 0 13.05595,-13.055955 13.057076,13.057076 0 0 0 -13.05595,-13.057353 z m 0,2.456375 a 10.599938,10.599938 0 0 1 10.59957,10.600978 10.599938,10.599938 0 0 1 -10.59957,10.59958 10.599938,10.599938 0 0 1 -10.60098,-10.59958 10.599938,10.599938 0 0 1 10.60098,-10.600978 z" />
      <path
         id="path36678"
         style="opacity:1;vector-effect:none;fill:#8e8e8e;fill-opacity:1;stroke-width:1.0826;stroke-linecap:butt;stop-color:#000000;stop-opacity:1"
         d="m 449.75,-123.82031 -1.82617,25.517576 c 1.00078,0.403802 1.81999,0.943628 2.21484,1.734375 3.7818,7.573584 5.44172,15.069766 5.83594,23.484375 -0.0227,-16.423182 -1.85659,-33.106996 -5.9707,-50.124996 -0.0528,-0.21822 -0.17231,-0.40509 -0.25391,-0.61133 z" />
    </g>
    <g
       id="g36696"
       transform="matrix(0.92369747,0,0,0.92369747,230.3876,217.88727)"
       style="stroke-width:1.08261">
      <rect
         style="font-variation-settings:normal;opacity:1;vector-effect:none;fill:#454545;fill-opacity:1;stroke:none;stroke-width:1.08261;stroke-linecap:butt;stroke-linejoin:miter;stroke-miterlimit:10;stroke-dasharray:none;stroke-dashoffset:0;stroke-opacity:1;-inkscape-stroke:none;stop-color:#000000;stop-opacity:1"
         id="rect36684"
         width="80"
         height="120"
         x="380.03055"
         y="-131.47276"
         rx="5.4130278"
         ry="5.4130278" />
      <path
         id="path36686"
         style="opacity:1;vector-effect:none;fill:#222222;fill-opacity:1;stroke-width:1.0826;stroke-linecap:butt;stop-color:#000000;stop-opacity:1"
         d="m 394.1813,-127.41922 h 51.69849 c 2.77,0 4.47928,1.84605 5,4 8.6781,35.896846 7.3317,70.331415 0,103.892906 -0.47294,2.164943 -2.23,4 -5,4 H 394.1813 c -2.77,0 -4.41344,-1.86304 -5,-4 -10.21052,-37.198794 -6.93253,-71.005388 0,-103.892906 0.45708,-2.16835 2.23,-4 5,-4 z"
         sodipodi:nodetypes="sssssssss" />
      <path
         id="path36688"
         style="opacity:1;vector-effect:none;fill:url(#linearGradient36698);fill-opacity:1;stroke-width:1.0826;stroke-linecap:butt;stop-color:#000000;stop-opacity:1"
         d="m 395.62752,-98.066406 c -2.71971,0 -4.46044,0.86966 -4.90922,1.90039 -4.27356,9.815267 -6.83451,19.803249 -6.35513,32.511027 0.47937,12.707778 1.05445,28.103182 5.3736,44.129598 0.57591,2.13696 2.18951,4 4.90922,4 h 50.75872 c 2.71971,0 4.44487,-1.835057 4.90923,-4 3.2735,-15.261841 4.0374,-30.708382 4.72458,-43.483624 0.68717,-12.775242 -0.55372,-22.838426 -5.7062,-33.157001 -0.51127,-1.023885 -2.18952,-1.90039 -4.90923,-1.90039 z"
         sodipodi:nodetypes="sscsssscsss" />
      <rect
         style="font-variation-settings:normal;opacity:1;vector-effect:none;fill:#ffffff;fill-opacity:1;stroke:none;stroke-width:1.08261;stroke-linecap:butt;stroke-linejoin:miter;stroke-miterlimit:10;stroke-dasharray:none;stroke-dashoffset:0;stroke-opacity:1;-inkscape-stroke:none;stop-color:#000000;stop-opacity:1"
         id="rect36690"
         width="3.3032477"
         height="19.483843"
         x="418.59995"
         y="-92.543144"
         rx="1.6193401"
         ry="1.6193401" />
      <path
         id="path36692"
         style="opacity:1;vector-effect:none;fill:#ffffff;stroke-width:1.08261;stroke-linecap:butt;stop-color:#000000;stop-opacity:1"
         d="m 419.7595,-53.745779 a 13.057076,13.057076 0 0 0 -13.05736,13.057353 13.057076,13.057076 0 0 0 13.05736,13.055955 13.057076,13.057076 0 0 0 13.05595,-13.055955 13.057076,13.057076 0 0 0 -13.05595,-13.057353 z m 0,2.456375 a 10.599938,10.599938 0 0 1 10.59957,10.600978 10.599938,10.599938 0 0 1 -10.59957,10.59958 10.599938,10.599938 0 0 1 -10.60098,-10.59958 10.599938,10.599938 0 0 1 10.60098,-10.600978 z" />
      <path
         id="path36694"
         style="opacity:1;vector-effect:none;fill:#8e8e8e;fill-opacity:1;stroke-width:1.0826;stroke-linecap:butt;stop-color:#000000;stop-opacity:1"
         d="m 449.75,-123.82031 -1.82617,25.517576 c 1.00078,0.403802 1.81999,0.943628 2.21484,1.734375 3.7818,7.573584 5.44172,15.069766 5.83594,23.484375 -0.0227,-16.423182 -1.85659,-33.106996 -5.9707,-50.124996 -0.0528,-0.21822 -0.17231,-0.40509 -0.25391,-0.61133 z" />
    </g>
  </g>
</svg>
