<?xml version="1.0" encoding="UTF-8" standalone="no"?>
<svg
   version="1.1"
   viewBox="0 0 840 240"
   fill="none"
   stroke="none"
   stroke-linecap="square"
   stroke-miterlimit="10"
   id="svg79"
   sodipodi:docname="painel.svg"
   width="840"
   height="240"
   inkscape:version="1.1 (1:1.1+202105261517+ce6663b3b7)"
   xmlns:inkscape="http://www.inkscape.org/namespaces/inkscape"
   xmlns:sodipodi="http://sodipodi.sourceforge.net/DTD/sodipodi-0.dtd"
   xmlns:xlink="http://www.w3.org/1999/xlink"
   xmlns="http://www.w3.org/2000/svg"
   xmlns:svg="http://www.w3.org/2000/svg">
  <defs
     id="defs83">
    <linearGradient
       inkscape:collect="always"
       id="linearGradient25117">
      <stop
         style="stop-color:#2b2b2b;stop-opacity:1"
         offset="0"
         id="stop25113" />
      <stop
         style="stop-color:#444444;stop-opacity:1;"
         offset="0.45421484"
         id="stop29336" />
      <stop
         style="stop-color:#8e8e8e;stop-opacity:1"
         offset="1"
         id="stop25115" />
    </linearGradient>
    <linearGradient
       inkscape:collect="always"
       xlink:href="#linearGradient25117"
       id="linearGradient25119"
       x1="420.36679"
       y1="-99.030792"
       x2="420.36679"
       y2="-19.139879"
       gradientUnits="userSpaceOnUse"
       gradientTransform="matrix(0.98184527,0,0,1,7.6206127,0)" />
    <linearGradient
       inkscape:collect="always"
       xlink:href="#linearGradient25117"
       id="linearGradient36666"
       gradientUnits="userSpaceOnUse"
       gradientTransform="matrix(0.98184527,0,0,1,7.6206127,0)"
       x1="420.36679"
       y1="-99.030792"
       x2="420.36679"
       y2="-19.139879" />
    <linearGradient
       inkscape:collect="always"
       xlink:href="#linearGradient25117"
       id="linearGradient36682"
       gradientUnits="userSpaceOnUse"
       gradientTransform="matrix(0.98184527,0,0,1,7.6206127,0)"
       x1="420.36679"
       y1="-99.030792"
       x2="420.36679"
       y2="-19.139879" />
    <linearGradient
       inkscape:collect="always"
       xlink:href="#linearGradient25117"
       id="linearGradient36698"
       gradientUnits="userSpaceOnUse"
       gradientTransform="matrix(0.98184527,0,0,1,7.6206127,0)"
       x1="420.36679"
       y1="-99.030792"
       x2="420.36679"
       y2="-19.139879" />
  </defs>
  <sodipodi:namedview
     id="namedview81"
     pagecolor="#ffffff"
     bordercolor="#666666"
     borderopacity="1.0"
     inkscape:pageshadow="2"
     inkscape:pageopacity="0.0"
     inkscape:pagecheckerboard="0"
     showgrid="false"
     borderlayer="true"
     inkscape:zoom="1.3770833"
     inkscape:cx="429.53102"
     inkscape:cy="108.92587"
     inkscape:window-width="1920"
     inkscape:window-height="1080"
     inkscape:window-x="0"
     inkscape:window-y="0"
     inkscape:window-maximized="1"
     inkscape:current-layer="g928"
     showguides="true"
     inkscape:guide-bbox="true" />
  <clipPath
     id="p.0">
    <path
       d="M 0,0 H 960 V 540 H 0 Z"
       clip-rule="nonzero"
       id="path2" />
  </clipPath>
  <g
     id="g928"
     transform="translate(24.83347,-3.395872)">
    <path
       fill="#efefef"
       d="m 278.38668,32.623866 v 0 c 0,-10.619325 8.60867,-19.227992 19.22801,-19.227992 h 195.10127 c 5.09956,0 9.99029,2.025798 13.59623,5.631747 3.60593,3.605948 5.63177,8.496668 5.63177,13.596245 V 214.16786 c 0,10.61934 -8.6087,19.228 -19.228,19.228 H 297.61469 c -10.61934,0 -19.22801,-8.60866 -19.22801,-19.228 z"
       fill-rule="evenodd"
       id="path7"
       style="stroke-width:1" />
    <path
       stroke="#b7b7b7"
       stroke-width="1"
       stroke-linejoin="round"
       stroke-linecap="butt"
       d="m 278.38668,32.623866 v 0 c 0,-10.619325 8.60867,-19.227992 19.22801,-19.227992 h 195.10127 c 5.09956,0 9.99029,2.025798 13.59623,5.631747 3.60593,3.605948 5.63177,8.496668 5.63177,13.596245 V 214.16786 c 0,10.61934 -8.6087,19.228 -19.228,19.228 H 297.61469 c -10.61934,0 -19.22801,-8.60866 -19.22801,-19.228 z"
       fill-rule="evenodd"
       id="path9" />
    <path
       fill="#b6d7a8"
       d="m 550.75383,29.646724 v 0 c 0,-8.975097 7.27575,-16.25085 16.25085,-16.25085 h 98.64879 c 4.30999,0 8.44346,1.712138 11.49108,4.759758 3.04763,3.04762 4.75977,7.181101 4.75977,11.491092 V 217.14502 c 0,8.9751 -7.27575,16.25085 -16.25085,16.25085 h -98.64879 v 0 c -8.9751,0 -16.25085,-7.27575 -16.25085,-16.25085 z"
       fill-rule="evenodd"
       id="path11"
       style="stroke-width:1" />
    <path
       fill="#dd7e6b"
       d="m 108.42634,29.646724 v 0 c 0,-8.975097 7.27576,-16.25085 16.25086,-16.25085 h 98.64878 c 4.31,0 8.44347,1.712138 11.4911,4.759758 3.04762,3.04762 4.75976,7.181101 4.75976,11.491092 V 217.14502 c 0,8.9751 -7.27576,16.25085 -16.25086,16.25085 H 124.6772 v 0 c -8.9751,0 -16.25086,-7.27575 -16.25086,-16.25085 z"
       fill-rule="evenodd"
       id="path13"
       style="stroke-width:1" />
    <path
       fill="#000000"
       fill-opacity="0"
       d="M 135.35418,96.705624 H 213.4272 V 207.28991 h -78.07302 z"
       fill-rule="evenodd"
       id="path15"
       style="stroke-width:1" />
    <path
       fill="#000000"
       fill-opacity="0"
       d="m 306.01034,96.705624 h 78.07301 V 207.28991 h -78.07301 z"
       fill-rule="evenodd"
       id="path24"
       style="stroke-width:1" />
    <path
       fill="#000000"
       fill-opacity="0"
       d="m 294.55624,58.347604 h 100.9812 v 38.80984 h -100.9812 z"
       fill-rule="evenodd"
       id="path33"
       style="stroke-width:1" />
    <path
       fill="#000000"
       fill-opacity="0"
       d="M 123.89889,31.657041 H 224.88011 V 79.427464 H 123.89889 Z"
       fill-rule="evenodd"
       id="path37"
       style="stroke-width:1" />
    <path
       fill="#000000"
       fill-opacity="0"
       d="m 406.99154,96.705624 h 78.07302 V 207.28991 h -78.07302 z"
       fill-rule="evenodd"
       id="path41"
       style="stroke-width:1" />
    <path
       fill="#000000"
       fill-opacity="0"
       d="m 395.53746,58.347604 h 100.98127 v 38.80984 H 395.53746 Z"
       fill-rule="evenodd"
       id="path50"
       style="stroke-width:1" />
    <path
       fill="#000000"
       fill-opacity="0"
       d="m 580.04298,96.705624 h 78.07307 V 207.28991 h -78.07307 z"
       fill-rule="evenodd"
       id="path54"
       style="stroke-width:1" />
    <path
       fill="#000000"
       fill-opacity="0"
       d="m 550.75623,23.901464 h 131.15049 v 59.69848 H 550.75623 Z"
       fill-rule="evenodd"
       id="path63"
       style="stroke-width:1" />
    <path
       fill="#000000"
       fill-opacity="0"
       d="m 294.55867,20.541644 h 201.96241 v 35.81328 H 294.55867 Z"
       fill-rule="evenodd"
       id="path69"
       style="stroke-width:1" />
    <path
       fill="#000000"
       fill-opacity="0"
       d="M 294.55867,56.191714 H 496.52108"
       fill-rule="evenodd"
       id="path73"
       style="stroke-width:1" />
    <path
       stroke="#999999"
       stroke-width="1"
       stroke-linejoin="round"
       stroke-linecap="butt"
       d="M 294.55867,56.191714 H 496.52108"
       fill-rule="evenodd"
       id="path75" />
    <g
       id="g36196"
       transform="matrix(0.92369747,0,0,0.92369747,-215.67908,217.88727)"
       style="stroke-width:1.08261">
      <rect
         style="font-variation-settings:normal;opacity:1;vector-effect:none;fill:#454545;fill-opacity:1;stroke:none;stroke-width:1.08261;stroke-linecap:butt;stroke-linejoin:miter;stroke-miterlimit:10;stroke-dasharray:none;stroke-dashoffset:0;stroke-opacity:1;-inkscape-stroke:none;stop-color:#000000;stop-opacity:1"
         id="rect1685"
         width="80"
         height="120"
         x="380.03055"
         y="-131.47276"
         rx="5.4130278"
         ry="5.4130278" />
      <path
         id="rect6999"
         style="opacity:1;vector-effect:none;fill:#222222;fill-opacity:1;stroke-width:1.0826;stroke-linecap:butt;stop-color:#000000;stop-opacity:1"
         d="m 394.1813,-127.41922 h 51.69849 c 2.77,0 4.47928,1.84605 5,4 8.6781,35.896846 7.3317,70.331415 0,103.892906 -0.47294,2.164943 -2.23,4 -5,4 H 394.1813 c -2.77,0 -4.41344,-1.86304 -5,-4 -10.21052,-37.198794 -6.93253,-71.005388 0,-103.892906 0.45708,-2.16835 2.23,-4 5,-4 z"
         sodipodi:nodetypes="sssssssss" />
      <path
         id="path7391"
         style="opacity:1;vector-effect:none;fill:url(#linearGradient25119);fill-opacity:1;stroke-width:1.0826;stroke-linecap:butt;stop-color:#000000;stop-opacity:1"
         d="m 395.62752,-98.066406 c -2.71971,0 -4.46044,0.86966 -4.90922,1.90039 -4.27356,9.815267 -6.83451,19.803249 -6.35513,32.511027 0.47937,12.707778 1.05445,28.103182 5.3736,44.129598 0.57591,2.13696 2.18951,4 4.90922,4 h 50.75872 c 2.71971,0 4.44487,-1.835057 4.90923,-4 3.2735,-15.261841 4.0374,-30.708382 4.72458,-43.483624 0.68717,-12.775242 -0.55372,-22.838426 -5.7062,-33.157001 -0.51127,-1.023885 -2.18952,-1.90039 -4.90923,-1.90039 z"
         sodipodi:nodetypes="sscsssscsss" />
      <rect
         style="font-variation-settings:normal;opacity:1;vector-effect:none;fill:#ffffff;fill-opacity:1;stroke:none;stroke-width:1.08261;stroke-linecap:butt;stroke-linejoin:miter;stroke-miterlimit:10;stroke-dasharray:none;stroke-dashoffset:0;stroke-opacity:1;-inkscape-stroke:none;stop-color:#000000;stop-opacity:1"
         id="rect29534"
         width="3.3032477"
         height="19.483843"
         x="418.59995"
         y="-92.543144"
         rx="1.6193401"
         ry="1.6193401" />
      <path
         id="path29656"
         style="opacity:1;vector-effect:none;fill:#ffffff;stroke-width:1.08261;stroke-linecap:butt;stop-color:#000000;stop-opacity:1"
         d="m 419.7595,-53.745779 a 13.057076,13.057076 0 0 0 -13.05736,13.057353 13.057076,13.057076 0 0 0 13.05736,13.055955 13.057076,13.057076 0 0 0 13.05595,-13.055955 13.057076,13.057076 0 0 0 -13.05595,-13.057353 z m 0,2.456375 a 10.599938,10.599938 0 0 1 10.59957,10.600978 10.599938,10.599938 0 0 1 -10.59957,10.59958 10.599938,10.599938 0 0 1 -10.60098,-10.59958 10.599938,10.599938 0 0 1 10.60098,-10.600978 z" />
      <path
         id="path30487"
         style="opacity:1;vector-effect:none;fill:#8e8e8e;fill-opacity:1;stroke-width:1.0826;stroke-linecap:butt;stop-color:#000000;stop-opacity:1"
         d="m 449.75,-123.82031 -1.82617,25.517576 c 1.00078,0.403802 1.81999,0.943628 2.21484,1.734375 3.7818,7.573584 5.44172,15.069766 5.83594,23.484375 -0.0227,-16.423182 -1.85659,-33.106996 -5.9707,-50.124996 -0.0528,-0.21822 -0.17231,-0.40509 -0.25391,-0.61133 z" />
    </g>
    <g
       id="g36664"
       transform="matrix(0.92369747,0,0,0.92369747,-43.571537,217.88727)"
       style="stroke-width:1.08261">
      <rect
         style="font-variation-settings:normal;opacity:1;vector-effect:none;fill:#454545;fill-opacity:1;stroke:none;stroke-width:1.08261;stroke-linecap:butt;stroke-linejoin:miter;stroke-miterlimit:10;stroke-dasharray:none;stroke-dashoffset:0;stroke-opacity:1;-inkscape-stroke:none;stop-color:#000000;stop-opacity:1"
         id="rect36652"
         width="80"
         height="120"
         x="380.03055"
         y="-131.47276"
         rx="5.4130278"
         ry="5.4130278" />
      <path
         id="path36654"
         style="opacity:1;vector-effect:none;fill:#222222;fill-opacity:1;stroke-width:1.0826;stroke-linecap:butt;stop-color:#000000;stop-opacity:1"
         d="m 394.1813,-127.41922 h 51.69849 c 2.77,0 4.47928,1.84605 5,4 8.6781,35.896846 7.3317,70.331415 0,103.892906 -0.47294,2.164943 -2.23,4 -5,4 H 394.1813 c -2.77,0 -4.41344,-1.86304 -5,-4 -10.21052,-37.198794 -6.93253,-71.005388 0,-103.892906 0.45708,-2.16835 2.23,-4 5,-4 z"
         sodipodi:nodetypes="sssssssss" />
      <path
         id="path36656"
         style="opacity:1;vector-effect:none;fill:url(#linearGradient36666);fill-opacity:1;stroke-width:1.0826;stroke-linecap:butt;stop-color:#000000;stop-opacity:1"
         d="m 395.62752,-98.066406 c -2.71971,0 -4.46044,0.86966 -4.90922,1.90039 -4.27356,9.815267 -6.83451,19.803249 -6.35513,32.511027 0.47937,12.707778 1.05445,28.103182 5.3736,44.129598 0.57591,2.13696 2.18951,4 4.90922,4 h 50.75872 c 2.71971,0 4.44487,-1.835057 4.90923,-4 3.2735,-15.261841 4.0374,-30.708382 4.72458,-43.483624 0.68717,-12.775242 -0.55372,-22.838426 -5.7062,-33.157001 -0.51127,-1.023885 -2.18952,-1.90039 -4.90923,-1.90039 z"
         sodipodi:nodetypes="sscsssscsss" />
      <rect
         style="font-variation-settings:normal;opacity:1;vector-effect:none;fill:#ffffff;fill-opacity:1;stroke:none;stroke-width:1.08261;stroke-linecap:butt;stroke-linejoin:miter;stroke-miterlimit:10;stroke-dasharray:none;stroke-dashoffset:0;stroke-opacity:1;-inkscape-stroke:none;stop-color:#000000;stop-opacity:1"
         id="rect36658"
         width="3.3032477"
         height="19.483843"
         x="418.59995"
         y="-92.543144"
         rx="1.6193401"
         ry="1.6193401" />
      <path
         id="path36660"
         style="opacity:1;vector-effect:none;fill:#ffffff;stroke-width:1.08261;stroke-linecap:butt;stop-color:#000000;stop-opacity:1"
         d="m 419.7595,-53.745779 a 13.057076,13.057076 0 0 0 -13.05736,13.057353 13.057076,13.057076 0 0 0 13.05736,13.055955 13.057076,13.057076 0 0 0 13.05595,-13.055955 13.057076,13.057076 0 0 0 -13.05595,-13.057353 z m 0,2.456375 a 10.599938,10.599938 0 0 1 10.59957,10.600978 10.599938,10.599938 0 0 1 -10.59957,10.59958 10.599938,10.599938 0 0 1 -10.60098,-10.59958 10.599938,10.599938 0 0 1 10.60098,-10.600978 z" />
      <path
         id="path36662"
         style="opacity:1;vector-effect:none;fill:#8e8e8e;fill-opacity:1;stroke-width:1.0826;stroke-linecap:butt;stop-color:#000000;stop-opacity:1"
         d="m 449.75,-123.82031 -1.82617,25.517576 c 1.00078,0.403802 1.81999,0.943628 2.21484,1.734375 3.7818,7.573584 5.44172,15.069766 5.83594,23.484375 -0.0227,-16.423182 -1.85659,-33.106996 -5.9707,-50.124996 -0.0528,-0.21822 -0.17231,-0.40509 -0.25391,-0.61133 z" />
    </g>
    <g
       id="g36680"
       transform="matrix(0.92369747,0,0,0.92369747,56.568353,217.88727)"
       style="stroke-width:1.08261">
      <rect
         style="font-variation-settings:normal;opacity:1;vector-effect:none;fill:#454545;fill-opacity:1;stroke:none;stroke-width:1.08261;stroke-linecap:butt;stroke-linejoin:miter;stroke-miterlimit:10;stroke-dasharray:none;stroke-dashoffset:0;stroke-opacity:1;-inkscape-stroke:none;stop-color:#000000;stop-opacity:1"
         id="rect36668"
         width="80"
         height="120"
         x="380.03055"
         y="-131.47276"
         rx="5.4130278"
         ry="5.4130278" />
      <path
         id="path36670"
         style="opacity:1;vector-effect:none;fill:#222222;fill-opacity:1;stroke-width:1.0826;stroke-linecap:butt;stop-color:#000000;stop-opacity:1"
         d="m 394.1813,-127.41922 h 51.69849 c 2.77,0 4.47928,1.84605 5,4 8.6781,35.896846 7.3317,70.331415 0,103.892906 -0.47294,2.164943 -2.23,4 -5,4 H 394.1813 c -2.77,0 -4.41344,-1.86304 -5,-4 -10.21052,-37.198794 -6.93253,-71.005388 0,-103.892906 0.45708,-2.16835 2.23,-4 5,-4 z"
         sodipodi:nodetypes="sssssssss" />
      <path
         id="path36672"
         style="opacity:1;vector-effect:none;fill:url(#linearGradient36682);fill-opacity:1;stroke-width:1.0826;stroke-linecap:butt;stop-color:#000000;stop-opacity:1"
         d="m 395.62752,-98.066406 c -2.71971,0 -4.46044,0.86966 -4.90922,1.90039 -4.27356,9.815267 -6.83451,19.803249 -6.35513,32.511027 0.47937,12.707778 1.05445,28.103182 5.3736,44.129598 0.57591,2.13696 2.18951,4 4.90922,4 h 50.75872 c 2.71971,0 4.44487,-1.835057 4.90923,-4 3.2735,-15.261841 4.0374,-30.708382 4.72458,-43.483624 0.68717,-12.775242 -0.55372,-22.838426 -5.7062,-33.157001 -0.51127,-1.023885 -2.18952,-1.90039 -4.90923,-1.90039 z"
         sodipodi:nodetypes="sscsssscsss" />
      <rect
         style="font-variation-settings:normal;opacity:1;vector-effect:none;fill:#ffffff;fill-opacity:1;stroke:none;stroke-width:1.08261;stroke-linecap:butt;stroke-linejoin:miter;stroke-miterlimit:10;stroke-dasharray:none;stroke-dashoffset:0;stroke-opacity:1;-inkscape-stroke:none;stop-color:#000000;stop-opacity:1"
         id="rect36674"
         width="3.3032477"
         height="19.483843"
         x="418.59995"
         y="-92.543144"
         rx="1.6193401"
         ry="1.6193401" />
      <path
         id="path36676"
         style="opacity:1;vector-effect:none;fill:#ffffff;stroke-width:1.08261;stroke-linecap:butt;stop-color:#000000;stop-opacity:1"
         d="m 419.7595,-53.745779 a 13.057076,13.057076 0 0 0 -13.05736,13.057353 13.057076,13.057076 0 0 0 13.05736,13.055955 13.057076,13.057076 0 0 0 13.05595,-13.055955 13.057076,13.057076 0 0 0 -13.05595,-13.057353 z m 0,2.456375 a 10.599938,10.599938 0 0 1 10.59957,10.600978 10.599938,10.599938 0 0 1 -10.59957,10.59958 10.599938,10.599938 0 0 1 -10.60098,-10.59958 10.599938,10.599938 0 0 1 10.60098,-10.600978 z" />
      <path
         id="path36678"
         style="opacity:1;vector-effect:none;fill:#8e8e8e;fill-opacity:1;stroke-width:1.0826;stroke-linecap:butt;stop-color:#000000;stop-opacity:1"
         d="m 449.75,-123.82031 -1.82617,25.517576 c 1.00078,0.403802 1.81999,0.943628 2.21484,1.734375 3.7818,7.573584 5.44172,15.069766 5.83594,23.484375 -0.0227,-16.423182 -1.85659,-33.106996 -5.9707,-50.124996 -0.0528,-0.21822 -0.17231,-0.40509 -0.25391,-0.61133 z" />
    </g>
    <g
       id="g36696"
       transform="matrix(0.92369747,0,0,0.92369747,230.3876,217.88727)"
       style="stroke-width:1.08261">
      <rect
         style="font-variation-settings:normal;opacity:1;vector-effect:none;fill:#454545;fill-opacity:1;stroke:none;stroke-width:1.08261;stroke-linecap:butt;stroke-linejoin:miter;stroke-miterlimit:10;stroke-dasharray:none;stroke-dashoffset:0;stroke-opacity:1;-inkscape-stroke:none;stop-color:#000000;stop-opacity:1"
         id="rect36684"
         width="80"
         height="120"
         x="380.03055"
         y="-131.47276"
         rx="5.4130278"
         ry="5.4130278" />
      <path
         id="path36686"
         style="opacity:1;vector-effect:none;fill:#222222;fill-opacity:1;stroke-width:1.0826;stroke-linecap:butt;stop-color:#000000;stop-opacity:1"
         d="m 394.1813,-127.41922 h 51.69849 c 2.77,0 4.47928,1.84605 5,4 8.6781,35.896846 7.3317,70.331415 0,103.892906 -0.47294,2.164943 -2.23,4 -5,4 H 394.1813 c -2.77,0 -4.41344,-1.86304 -5,-4 -10.21052,-37.198794 -6.93253,-71.005388 0,-103.892906 0.45708,-2.16835 2.23,-4 5,-4 z"
         sodipodi:nodetypes="sssssssss" />
      <path
         id="path36688"
         style="opacity:1;vector-effect:none;fill:url(#linearGradient36698);fill-opacity:1;stroke-width:1.0826;stroke-linecap:butt;stop-color:#000000;stop-opacity:1"
         d="m 395.62752,-98.066406 c -2.71971,0 -4.46044,0.86966 -4.90922,1.90039 -4.27356,9.815267 -6.83451,19.803249 -6.35513,32.511027 0.47937,12.707778 1.05445,28.103182 5.3736,44.129598 0.57591,2.13696 2.18951,4 4.90922,4 h 50.75872 c 2.71971,0 4.44487,-1.835057 4.90923,-4 3.2735,-15.261841 4.0374,-30.708382 4.72458,-43.483624 0.68717,-12.775242 -0.55372,-22.838426 -5.7062,-33.157001 -0.51127,-1.023885 -2.18952,-1.90039 -4.90923,-1.90039 z"
         sodipodi:nodetypes="sscsssscsss" />
      <rect
         style="font-variation-settings:normal;opacity:1;vector-effect:none;fill:#ffffff;fill-opacity:1;stroke:none;stroke-width:1.08261;stroke-linecap:butt;stroke-linejoin:miter;stroke-miterlimit:10;stroke-dasharray:none;stroke-dashoffset:0;stroke-opacity:1;-inkscape-stroke:none;stop-color:#000000;stop-opacity:1"
         id="rect36690"
         width="3.3032477"
         height="19.483843"
         x="418.59995"
         y="-92.543144"
         rx="1.6193401"
         ry="1.6193401" />
      <path
         id="path36692"
         style="opacity:1;vector-effect:none;fill:#ffffff;stroke-width:1.08261;stroke-linecap:butt;stop-color:#000000;stop-opacity:1"
         d="m 419.7595,-53.745779 a 13.057076,13.057076 0 0 0 -13.05736,13.057353 13.057076,13.057076 0 0 0 13.05736,13.055955 13.057076,13.057076 0 0 0 13.05595,-13.055955 13.057076,13.057076 0 0 0 -13.05595,-13.057353 z m 0,2.456375 a 10.599938,10.599938 0 0 1 10.59957,10.600978 10.599938,10.599938 0 0 1 -10.59957,10.59958 10.599938,10.599938 0 0 1 -10.60098,-10.59958 10.599938,10.599938 0 0 1 10.60098,-10.600978 z" />
      <path
         id="path36694"
         style="opacity:1;vector-effect:none;fill:#8e8e8e;fill-opacity:1;stroke-width:1.0826;stroke-linecap:butt;stop-color:#000000;stop-opacity:1"
         d="m 449.75,-123.82031 -1.82617,25.517576 c 1.00078,0.403802 1.81999,0.943628 2.21484,1.734375 3.7818,7.573584 5.44172,15.069766 5.83594,23.484375 -0.0227,-16.423182 -1.85659,-33.106996 -5.9707,-50.124996 -0.0528,-0.21822 -0.17231,-0.40509 -0.25391,-0.61133 z" />
    </g>
    <text
       xml:space="preserve"
       style="font-size:18.6667px;line-height:1.25;font-family:sans-serif;text-align:center;text-anchor:middle;fill:#000000"
       x="344.07367"
       y="82.867744"
       id="text26548"><tspan
         sodipodi:role="line"
         id="tspan26546"
         x="344.07367"
         y="82.867744"
         style="font-size:18.6667px">REUSO</tspan></text>
    <text
       xml:space="preserve"
       style="font-size:18.6667px;line-height:1.25;font-family:sans-serif;text-align:center;text-anchor:middle;fill:#000000"
       x="444.21356"
       y="82.867744"
       id="text29968"><tspan
         sodipodi:role="line"
         id="tspan29966"
         x="444.21356"
         y="82.867744"
         style="font-size:18.6667px">CHUVA</tspan></text>
    <text
       xml:space="preserve"
       style="font-size:16px;line-height:1.25;font-family:sans-serif;text-align:center;text-anchor:middle;fill:#000000"
       x="394.7825"
       y="42.867744"
       id="text31002"><tspan
         sodipodi:role="line"
         id="tspan31000"
         x="394.7825"
         y="42.867744">ORIGEM DA ÁGUA</tspan></text>
    <text
       xml:space="preserve"
       style="font-size:16px;line-height:1.25;font-family:sans-serif;text-align:center;text-anchor:middle;fill:#000000"
       x="617.98596"
       y="47.867744"
       id="text34544"><tspan
         sodipodi:role="line"
         id="tspan34542"
         x="617.98596"
         y="47.867744">MODO</tspan><tspan
         sodipodi:role="line"
         x="617.98596"
         y="72.586494"
         id="tspan34728"
         style="font-size:21.3333px">PET</tspan></text>
    <text
       xml:space="preserve"
       style="font-size:24px;line-height:1.25;font-family:sans-serif;text-align:center;text-anchor:middle;fill:#ffffff"
       x="171.96614"
       y="62.867744"
       id="text37044"><tspan
         sodipodi:role="line"
         id="tspan37042"
         x="171.96614"
         y="62.867744"
         style="font-size:24px;fill:#ffffff">LIGA</tspan></text>
  </g>
</svg>
