<?xml version="1.0" encoding="UTF-8" standalone="no"?>
<svg
   version="1.1"
   viewBox="0 0 840 360"
   fill="none"
   stroke="none"
   stroke-linecap="square"
   stroke-miterlimit="10"
   id="svg79"
   sodipodi:docname="painel.svg"
   width="840"
   height="360"
   inkscape:version="1.1 (1:1.1+202105261517+ce6663b3b7)"
   xmlns:inkscape="http://www.inkscape.org/namespaces/inkscape"
   xmlns:sodipodi="http://sodipodi.sourceforge.net/DTD/sodipodi-0.dtd"
   xmlns:xlink="http://www.w3.org/1999/xlink"
   xmlns="http://www.w3.org/2000/svg"
   xmlns:svg="http://www.w3.org/2000/svg">
  <defs
     id="defs83">
    <linearGradient
       inkscape:collect="always"
       id="linearGradient25117">
      <stop
         style="stop-color:#2b2b2b;stop-opacity:1"
         offset="0"
         id="stop25113" />
      <stop
         style="stop-color:#444444;stop-opacity:1;"
         offset="0.45421484"
         id="stop29336" />
      <stop
         style="stop-color:#8e8e8e;stop-opacity:1"
         offset="1"
         id="stop25115" />
    </linearGradient>
    <linearGradient
       inkscape:collect="always"
       xlink:href="#linearGradient25117"
       id="linearGradient25119"
       x1="420.36679"
       y1="-99.030792"
       x2="420.36679"
       y2="-19.139879"
       gradientUnits="userSpaceOnUse"
       gradientTransform="matrix(0.98184527,0,0,1,7.6206127,0)" />
    <linearGradient
       inkscape:collect="always"
       xlink:href="#linearGradient25117"
       id="linearGradient36666"
       gradientUnits="userSpaceOnUse"
       gradientTransform="matrix(0.98184527,0,0,1,7.6206127,0)"
       x1="420.36679"
       y1="-99.030792"
       x2="420.36679"
       y2="-19.139879" />
    <linearGradient
       inkscape:collect="always"
       xlink:href="#linearGradient25117"
       id="linearGradient36682"
       gradientUnits="userSpaceOnUse"
       gradientTransform="matrix(0.98184527,0,0,1,7.6206127,0)"
       x1="420.36679"
       y1="-99.030792"
       x2="420.36679"
       y2="-19.139879" />
    <linearGradient
       inkscape:collect="always"
       xlink:href="#linearGradient25117"
       id="linearGradient36698"
       gradientUnits="userSpaceOnUse"
       gradientTransform="matrix(0.98184527,0,0,1,7.6206127,0)"
       x1="420.36679"
       y1="-99.030792"
       x2="420.36679"
       y2="-19.139879" />
  </defs>
  <sodipodi:namedview
     id="namedview81"
     pagecolor="#ffffff"
     bordercolor="#666666"
     borderopacity="1.0"
     inkscape:pageshadow="2"
     inkscape:pageopacity="0.0"
     inkscape:pagecheckerboard="0"
     showgrid="false"
     borderlayer="true"
     inkscape:zoom="1.3770833"
     inkscape:cx="416.823"
     inkscape:cy="222.93495"
     inkscape:window-width="1920"
     inkscape:window-height="1080"
     inkscape:window-x="0"
     inkscape:window-y="0"
     inkscape:window-maximized="1"
     inkscape:current-layer="svg79"
     showguides="true"
     inkscape:guide-bbox="true" />
  <clipPath
     id="p.0">
    <path
       d="M 0,0 H 960 V 540 H 0 Z"
       clip-rule="nonzero"
       id="path2" />
  </clipPath>
  <path
     fill="#efefef"
     d="m 293.57349,81.72972 v 0 c 0,-11.49654 9.31979,-20.81633 20.81635,-20.81633 h 211.21771 c 5.52081,0 10.81555,2.19314 14.71936,6.09696 3.9038,3.90382 6.09698,9.19854 6.09698,14.71937 v 196.54054 c 0,11.49655 -9.31982,20.81634 -20.81634,20.81634 H 314.38984 c -11.49656,0 -20.81635,-9.31979 -20.81635,-20.81634 z"
     fill-rule="evenodd"
     id="path7" />
  <path
     stroke="#b7b7b7"
     stroke-width="1"
     stroke-linejoin="round"
     stroke-linecap="butt"
     d="m 293.57349,81.72972 v 0 c 0,-11.49654 9.31979,-20.81633 20.81635,-20.81633 h 211.21771 c 5.52081,0 10.81555,2.19314 14.71936,6.09696 3.9038,3.90382 6.09698,9.19854 6.09698,14.71937 v 196.54054 c 0,11.49655 -9.31982,20.81634 -20.81634,20.81634 H 314.38984 c -11.49656,0 -20.81635,-9.31979 -20.81635,-20.81634 z"
     fill-rule="evenodd"
     id="path9" />
  <path
     fill="#b6d7a8"
     d="m 588.43967,78.50665 v 0 c 0,-9.71649 7.87677,-17.59326 17.59326,-17.59326 h 106.79773 c 4.66602,0 9.14093,1.85357 12.44031,5.15294 3.29938,3.29937 5.15295,7.7743 5.15295,12.44032 v 202.9867 c 0,9.71649 -7.87677,17.59326 -17.59326,17.59326 H 606.03293 v 0 c -9.71649,0 -17.59326,-7.87677 -17.59326,-17.59326 z"
     fill-rule="evenodd"
     id="path11" />
  <path
     fill="#dd7e6b"
     d="m 109.57348,78.50665 v 0 c 0,-9.71649 7.87678,-17.59326 17.59327,-17.59326 h 106.79772 c 4.66603,0 9.14094,1.85357 12.44032,5.15294 3.29938,3.29937 5.15295,7.7743 5.15295,12.44032 v 202.9867 c 0,9.71649 -7.87678,17.59326 -17.59327,17.59326 H 127.16675 v 0 c -9.71649,0 -17.59327,-7.87677 -17.59327,-17.59326 z"
     fill-rule="evenodd"
     id="path13" />
  <path
     fill="#000000"
     fill-opacity="0"
     d="m 138.72571,151.10499 h 84.52228 v 119.71916 h -84.52228 z"
     fill-rule="evenodd"
     id="path15" />
  <path
     fill="#000000"
     fill-opacity="0"
     d="m 323.47901,151.10499 h 84.52228 v 119.71916 h -84.52228 z"
     fill-rule="evenodd"
     id="path24" />
  <path
     fill="#000000"
     fill-opacity="0"
     d="m 311.07874,109.57838 h 109.32281 v 42.01575 H 311.07874 Z"
     fill-rule="evenodd"
     id="path33" />
  <path
     fill="#000000"
     d="m 344.74863,131.81088 1.76562,0.45312 q -0.5625,2.17188 -2,3.32813 -1.4375,1.14062 -3.53125,1.14062 -2.15625,0 -3.51562,-0.875 -1.34375,-0.89062 -2.0625,-2.54687 -0.70313,-1.67188 -0.70313,-3.59375 0,-2.07813 0.79688,-3.625 0.79687,-1.5625 2.26562,-2.35938 1.48438,-0.8125 3.25,-0.8125 2,0 3.35938,1.01563 1.375,1.01562 1.90625,2.875 l -1.73438,0.40625 q -0.46875,-1.45313 -1.35937,-2.10938 -0.875,-0.67187 -2.20313,-0.67187 -1.54687,0 -2.57812,0.73437 -1.03125,0.73438 -1.45313,1.98438 -0.42187,1.23437 -0.42187,2.5625 0,1.70312 0.5,2.96875 0.5,1.26562 1.54687,1.90625 1.04688,0.625 2.26563,0.625 1.48437,0 2.51562,-0.85938 1.03125,-0.85937 1.39063,-2.54687 z m 4.00418,4.6875 V 123.139 h 1.76563 v 5.48438 h 6.9375 V 123.139 h 1.76562 v 13.35938 h -1.76562 v -6.29688 h -6.9375 v 6.29688 z M 370.9289,123.139 h 1.76562 v 7.71875 q 0,2.01563 -0.45312,3.20313 -0.45313,1.1875 -1.64063,1.9375 -1.1875,0.73437 -3.125,0.73437 -1.875,0 -3.07812,-0.64062 -1.1875,-0.65625 -1.70313,-1.875 -0.5,-1.23438 -0.5,-3.35938 V 123.139 h 1.76563 v 7.71875 q 0,1.73438 0.3125,2.5625 0.32812,0.8125 1.10937,1.26563 0.79688,0.45312 1.9375,0.45312 1.95313,0 2.78125,-0.89062 0.82813,-0.89063 0.82813,-3.39063 z m 8.5198,13.35938 -5.17187,-13.35938 h 1.92187 l 3.46875,9.70313 q 0.42188,1.17187 0.70313,2.1875 0.3125,-1.09375 0.71875,-2.1875 l 3.60937,-9.70313 h 1.79688 l -5.23438,13.35938 z m 5.77692,0 5.125,-13.35938 h 1.90625 l 5.46875,13.35938 h -2.01563 l -1.54687,-4.04688 h -5.59375 l -1.46875,4.04688 z m 3.85937,-5.48438 h 4.53125 l -1.40625,-3.70312 q -0.625,-1.6875 -0.9375,-2.76563 -0.26562,1.28125 -0.71875,2.54688 z"
     fill-rule="nonzero"
     id="path35" />
  <path
     fill="#000000"
     fill-opacity="0"
     d="m 126.32415,80.68303 h 109.32283 v 51.71652 H 126.32415 Z"
     fill-rule="evenodd"
     id="path37" />
  <path
     fill="#ffffff"
     d="M 151.19591,115.28302 V 96.36114 h 3.84375 v 15.70313 h 9.57812 v 3.21875 z m 16.06395,0 V 96.20489 h 3.84375 v 19.07813 z m 16.39033,-7.01563 v -3.21875 h 8.31252 v 7.60938 q -1.21875,1.17187 -3.51564,2.0625 -2.29688,0.89062 -4.65625,0.89062 -2.98438,0 -5.21875,-1.25 -2.21875,-1.26562 -3.34375,-3.59375 -1.10938,-2.34375 -1.10938,-5.09375 0,-2.98437 1.25,-5.29687 1.25,-2.3125 3.65625,-3.54688 1.82813,-0.95312 4.5625,-0.95312 3.54688,0 5.54688,1.5 2.00001,1.48437 2.57814,4.10937 l -3.82814,0.71875 q -0.40625,-1.40625 -1.51563,-2.21875 -1.10937,-0.8125 -2.78125,-0.8125 -2.53125,0 -4.01562,1.60938 -1.48438,1.59375 -1.48438,4.73437 0,3.40625 1.5,5.10938 1.51563,1.6875 3.96875,1.6875 1.20313,0 2.42188,-0.46875 1.21875,-0.48438 2.09375,-1.15625 v -2.42188 z m 29.06223,7.01563 h -4.1875 l -1.65625,-4.32813 h -7.64063 l -1.5625,4.32813 h -4.09375 l 7.4375,-19.07813 h 4.0625 z m -7.09375,-7.54688 -2.625,-7.07812 -2.57813,7.07812 z"
     fill-rule="nonzero"
     id="path39" />
  <path
     fill="#000000"
     fill-opacity="0"
     d="M 432.80182,151.10499 H 517.3241 V 270.82415 H 432.80182 Z"
     fill-rule="evenodd"
     id="path41" />
  <path
     fill="#000000"
     fill-opacity="0"
     d="m 420.40157,109.57838 h 109.32288 v 42.01575 H 420.40157 Z"
     fill-rule="evenodd"
     id="path50" />
  <path
     fill="#000000"
     d="M 443.3595,136.49838 V 123.139 h 5.92187 q 1.78125,0 2.70313,0.35938 0.9375,0.35937 1.48437,1.28125 0.5625,0.90625 0.5625,2.01562 0,1.40625 -0.92187,2.39063 -0.92188,0.96875 -2.84375,1.23437 0.70312,0.34375 1.07812,0.67188 0.76563,0.70312 1.45313,1.76562 l 2.32812,3.64063 h -2.21875 l -1.76562,-2.78125 q -0.78125,-1.20313 -1.28125,-1.82813 -0.5,-0.64062 -0.90625,-0.89062 -0.39063,-0.26563 -0.79688,-0.35938 -0.29687,-0.0781 -0.98437,-0.0781 h -2.04688 v 5.9375 z m 1.76562,-7.45313 h 3.79688 q 1.21875,0 1.89062,-0.25 0.6875,-0.26562 1.04688,-0.8125 0.35937,-0.54687 0.35937,-1.1875 0,-0.95312 -0.6875,-1.5625 -0.6875,-0.60937 -2.1875,-0.60937 h -4.21875 z m 11.70734,7.45313 V 123.139 h 9.65625 v 1.57813 h -7.875 v 4.09375 h 7.375 v 1.5625 h -7.375 v 4.54687 h 8.1875 v 1.57813 z M 478.01041,123.139 h 1.76562 v 7.71875 q 0,2.01563 -0.45312,3.20313 -0.45313,1.1875 -1.64063,1.9375 -1.1875,0.73437 -3.125,0.73437 -1.875,0 -3.07812,-0.64062 -1.1875,-0.65625 -1.70313,-1.875 -0.5,-1.23438 -0.5,-3.35938 V 123.139 h 1.76563 v 7.71875 q 0,1.73438 0.3125,2.5625 0.32812,0.8125 1.10937,1.26563 0.79688,0.45312 1.9375,0.45312 1.95313,0 2.78125,-0.89062 0.82813,-0.89063 0.82813,-3.39063 z m 4.11356,9.0625 1.65625,-0.14062 q 0.125,1 0.54687,1.64062 0.4375,0.64063 1.34375,1.04688 0.92188,0.39062 2.0625,0.39062 1,0 1.78125,-0.29687 0.78125,-0.29688 1.15625,-0.8125 0.375,-0.53125 0.375,-1.15625 0,-0.625 -0.375,-1.09375 -0.35937,-0.46875 -1.1875,-0.79688 -0.54687,-0.20312 -2.39062,-0.64062 -1.82813,-0.45313 -2.5625,-0.84375 -0.96875,-0.5 -1.4375,-1.23438 -0.46875,-0.75 -0.46875,-1.67187 0,-1 0.57812,-1.875 0.57813,-0.89063 1.67188,-1.34375 1.10937,-0.45313 2.45312,-0.45313 1.48438,0 2.60938,0.48438 1.14062,0.46875 1.75,1.40625 0.60937,0.92187 0.65625,2.09375 l -1.6875,0.125 q -0.14063,-1.26563 -0.9375,-1.90625 -0.78125,-0.65625 -2.3125,-0.65625 -1.60938,0 -2.34375,0.59375 -0.73438,0.59375 -0.73438,1.42187 0,0.71875 0.53125,1.17188 0.5,0.46875 2.65625,0.96875 2.15625,0.48437 2.95313,0.84375 1.17187,0.53125 1.71875,1.35937 0.5625,0.82813 0.5625,1.90625 0,1.0625 -0.60938,2.01563 -0.60937,0.9375 -1.75,1.46875 -1.14062,0.51562 -2.57812,0.51562 -1.8125,0 -3.04688,-0.53125 -1.21875,-0.53125 -1.92187,-1.59375 -0.6875,-1.0625 -0.71875,-2.40625 z m 12.50607,-2.20312 q 0,-3.32813 1.78125,-5.20313 1.78125,-1.89062 4.60934,-1.89062 1.84375,0 3.32813,0.89062 1.48437,0.875 2.26562,2.46875 0.78125,1.57813 0.78125,3.57813 0,2.03125 -0.82812,3.64062 -0.8125,1.59375 -2.3125,2.42188 -1.5,0.82812 -3.25,0.82812 -1.87497,0 -3.35935,-0.90625 -1.48437,-0.92187 -2.25,-2.5 -0.76562,-1.57812 -0.76562,-3.32812 z m 1.8125,0.0156 q 0,2.42188 1.29687,3.8125 1.29688,1.39063 3.2656,1.39063 2,0 3.28125,-1.40625 1.28125,-1.40625 1.28125,-3.98438 0,-1.625 -0.54688,-2.84375 -0.54687,-1.21875 -1.60937,-1.875 -1.0625,-0.67187 -2.375,-0.67187 -1.8906,0 -3.24997,1.29687 -1.34375,1.28125 -1.34375,4.28125 z"
     fill-rule="nonzero"
     id="path52" />
  <path
     fill="#000000"
     fill-opacity="0"
     d="m 620.14827,151.10499 h 84.52234 v 119.71916 h -84.52234 z"
     fill-rule="evenodd"
     id="path54" />
  <path
     fill="#000000"
     fill-opacity="0"
     d="m 588.44227,72.2868 h 141.98425 v 64.62991 H 588.44227 Z"
     fill-rule="evenodd"
     id="path63" />
  <path
     fill="#000000"
     d="M 635.73517,99.2068 V 87.75367 h 2.28125 l 2.71875,8.10938 q 0.375,1.125 0.54687,1.6875 0.1875,-0.625 0.60938,-1.82813 l 2.73437,-7.96875 h 2.04688 V 99.2068 h -1.46875 v -9.59375 l -3.32813,9.59375 h -1.35937 l -3.3125,-9.75 v 9.75 z m 12.92187,-5.57813 q 0,-2.85937 1.53125,-4.46875 1.53125,-1.60937 3.95313,-1.60937 1.57812,0 2.84375,0.76562 1.28125,0.75 1.95312,2.10938 0.67188,1.34375 0.67188,3.0625 0,1.75 -0.70313,3.125 -0.70312,1.375 -2,2.09375 -1.28125,0.70312 -2.78125,0.70312 -1.60937,0 -2.89062,-0.78125 -1.26563,-0.79687 -1.92188,-2.14062 -0.65625,-1.35938 -0.65625,-2.85938 z m 1.5625,0.0156 q 0,2.07812 1.10938,3.26562 1.10937,1.1875 2.79687,1.1875 1.70313,0 2.8125,-1.20312 1.10938,-1.20313 1.10938,-3.40625 0,-1.40625 -0.48438,-2.4375 -0.46875,-1.04688 -1.375,-1.625 -0.90625,-0.57813 -2.04687,-0.57813 -1.60938,0 -2.76563,1.10938 -1.15625,1.10937 -1.15625,3.6875 z m 11.33594,5.5625 V 87.75364 h 3.95313 q 1.32812,0 2.03125,0.15625 0.98437,0.23438 1.6875,0.82813 0.90625,0.76562 1.34375,1.95312 0.45312,1.1875 0.45312,2.71875 0,1.3125 -0.3125,2.32813 -0.29687,1 -0.78125,1.65625 -0.46875,0.65625 -1.03125,1.04687 -0.5625,0.375 -1.375,0.57813 -0.79687,0.1875 -1.82812,0.1875 z m 1.51563,-1.35938 h 2.45312 q 1.125,0 1.76563,-0.20312 0.65625,-0.21875 1.03125,-0.59375 0.54687,-0.54688 0.84375,-1.45313 0.29687,-0.90625 0.29687,-2.20312 0,-1.79688 -0.59375,-2.76563 -0.57812,-0.96875 -1.42187,-1.29687 -0.60938,-0.23438 -1.96875,-0.23438 h -2.40625 z m 9.58593,-4.21875 q 0,-2.85937 1.53125,-4.46875 1.53125,-1.60937 3.95313,-1.60937 1.57812,0 2.84375,0.76562 1.28125,0.75 1.95312,2.10938 0.67188,1.34375 0.67188,3.0625 0,1.75 -0.70313,3.125 -0.70312,1.375 -2,2.09375 -1.28125,0.70312 -2.78125,0.70312 -1.60937,0 -2.89062,-0.78125 -1.26563,-0.79687 -1.92188,-2.14062 -0.65625,-1.35938 -0.65625,-2.85938 z m 1.5625,0.0156 q 0,2.07812 1.10938,3.26562 1.10937,1.1875 2.79687,1.1875 1.70313,0 2.8125,-1.20312 1.10938,-1.20313 1.10938,-3.40625 0,-1.40625 -0.48438,-2.4375 -0.46875,-1.04688 -1.375,-1.625 -0.90625,-0.57813 -2.04687,-0.57813 -1.60938,0 -2.76563,1.10938 -1.15625,1.10937 -1.15625,3.6875 z"
     fill-rule="nonzero"
     id="path65" />
  <path
     fill="#000000"
     d="m 642.73027,121.60679 v -13.35938 h 5.04687 q 1.32813,0 2.03125,0.125 0.96875,0.17188 1.64063,0.64063 0.67187,0.45312 1.07812,1.28125 0.40625,0.82812 0.40625,1.82812 0,1.70313 -1.09375,2.89063 -1.07812,1.17187 -3.92187,1.17187 h -3.42188 v 5.42188 z m 1.76562,-7 h 3.45313 q 1.71875,0 2.4375,-0.64063 0.71875,-0.64062 0.71875,-1.79687 0,-0.84375 -0.42188,-1.4375 -0.42187,-0.59375 -1.125,-0.78125 -0.4375,-0.125 -1.64062,-0.125 h -3.42188 z m 10.70923,7 v -13.35938 h 9.65625 v 1.57813 h -7.875 v 4.09375 h 7.375 v 1.5625 h -7.375 v 4.54687 h 8.1875 v 1.57813 z m 15.81855,0 v -11.78125 h -4.40625 v -1.57813 h 10.57812 v 1.57813 h -4.40625 v 11.78125 z"
     fill-rule="nonzero"
     id="path67" />
  <path
     fill="#000000"
     fill-opacity="0"
     d="M 311.08137,68.64944 H 529.727 v 38.77165 H 311.08137 Z"
     fill-rule="evenodd"
     id="path69" />
  <path
     fill="#000000"
     d="m 350.95107,87.43132 q 0,-2.85938 1.53125,-4.46875 1.53125,-1.60938 3.95312,-1.60938 1.57813,0 2.84375,0.76563 1.28125,0.75 1.95313,2.10937 0.67187,1.34375 0.67187,3.0625 0,1.75 -0.70312,3.125 -0.70313,1.375 -2,2.09375 -1.28125,0.70313 -2.78125,0.70313 -1.60938,0 -2.89063,-0.78125 -1.26562,-0.79688 -1.92187,-2.14063 -0.65625,-1.35937 -0.65625,-2.85937 z m 1.5625,0.0156 q 0,2.07813 1.10937,3.26563 1.10938,1.1875 2.79688,1.1875 1.70312,0 2.8125,-1.20313 1.10937,-1.20312 1.10937,-3.40625 0,-1.40625 -0.48437,-2.4375 -0.46875,-1.04687 -1.375,-1.625 -0.90625,-0.57812 -2.04688,-0.57812 -1.60937,0 -2.76562,1.10937 -1.15625,1.10938 -1.15625,3.6875 z m 11.36719,5.5625 V 81.5563 h 5.07812 q 1.53125,0 2.32813,0.3125 0.79687,0.29687 1.26562,1.07812 0.48438,0.78125 0.48438,1.73438 0,1.21875 -0.79688,2.0625 -0.78125,0.82812 -2.4375,1.04687 0.60938,0.29688 0.92188,0.57813 0.65625,0.60937 1.25,1.51562 l 2,3.125 h -1.90625 l -1.51563,-2.39062 q -0.67187,-1.03125 -1.10937,-1.57813 -0.42188,-0.54687 -0.76563,-0.76562 -0.32812,-0.21875 -0.6875,-0.29688 -0.25,-0.0625 -0.84375,-0.0625 h -1.75 v 5.09375 z m 1.51562,-6.40625 h 3.25 q 1.04688,0 1.625,-0.20312 0.59375,-0.21875 0.89063,-0.6875 0.3125,-0.48438 0.3125,-1.03125 0,-0.8125 -0.59375,-1.32813 -0.59375,-0.53125 -1.85938,-0.53125 h -3.625 z m 10.27344,6.40625 V 81.5563 h 1.51562 v 11.45312 z m 9.53906,-4.5 v -1.34375 h 4.85938 v 4.25 q -1.125,0.89063 -2.3125,1.34375 -1.1875,0.45313 -2.4375,0.45313 -1.6875,0 -3.0625,-0.71875 -1.375,-0.73438 -2.07813,-2.09375 -0.70312,-1.375 -0.70312,-3.0625 0,-1.67188 0.6875,-3.125 0.70312,-1.45313 2.01562,-2.15625 1.3125,-0.70313 3.03125,-0.70313 1.23438,0 2.23438,0.40625 1.01562,0.40625 1.57812,1.125 0.57813,0.71875 0.875,1.875 l -1.375,0.375 q -0.25,-0.875 -0.64062,-1.375 -0.375,-0.5 -1.09375,-0.79687 -0.70313,-0.3125 -1.57813,-0.3125 -1.03125,0 -1.79687,0.32812 -0.75,0.3125 -1.21875,0.82813 -0.46875,0.51562 -0.71875,1.125 -0.4375,1.0625 -0.4375,2.3125 0,1.53125 0.51562,2.5625 0.53125,1.03125 1.53125,1.53125 1.01563,0.5 2.15625,0.5 0.98438,0 1.92188,-0.375 0.9375,-0.39063 1.42187,-0.8125 v -2.14063 z m 7.11719,4.5 V 81.5563 h 8.28125 v 1.34375 h -6.76563 v 3.51562 h 6.34375 v 1.34375 h -6.34375 v 3.89063 h 7.03125 v 1.35937 z m 10.59375,0 V 81.5563 h 2.28125 l 2.71875,8.10937 q 0.375,1.125 0.54687,1.6875 0.1875,-0.625 0.60938,-1.82812 l 2.73437,-7.96875 h 2.04688 v 11.45312 h -1.46875 v -9.59375 l -3.32813,9.59375 h -1.35937 l -3.3125,-9.75 v 9.75 z m 17.82031,0 V 81.5563 h 3.95313 q 1.32812,0 2.03125,0.15625 0.98437,0.23437 1.6875,0.82812 0.90625,0.76563 1.34375,1.95313 0.45312,1.1875 0.45312,2.71875 0,1.3125 -0.3125,2.32812 -0.29687,1 -0.78125,1.65625 -0.46875,0.65625 -1.03125,1.04688 -0.5625,0.375 -1.375,0.57812 -0.79687,0.1875 -1.82812,0.1875 z m 1.51563,-1.35937 h 2.45312 q 1.125,0 1.76563,-0.20313 0.65625,-0.21875 1.03125,-0.59375 0.54687,-0.54687 0.84375,-1.45312 0.29687,-0.90625 0.29687,-2.20313 0,-1.79687 -0.59375,-2.76562 -0.57812,-0.96875 -1.42187,-1.29688 -0.60938,-0.23437 -1.96875,-0.23437 h -2.40625 z m 8.77343,1.35937 4.40625,-11.45312 h 1.64063 l 4.68753,11.45312 h -1.73438 l -1.32815,-3.46875 h -4.79688 l -1.25,3.46875 z m 3.3125,-4.70312 h 3.89063 l -1.20313,-3.17188 q -0.54687,-1.45312 -0.8125,-2.375 -0.21875,1.09375 -0.60937,2.1875 z m 10.92191,4.70312 4.40625,-11.45312 h 1.64062 l 4.6875,11.45312 h -1.73437 l -1.32813,-3.46875 h -4.79687 l -1.25,3.46875 z m 3.3125,-4.70312 h 3.89062 l -1.20312,-3.17188 q -0.54688,-1.45312 -0.8125,-2.375 -0.21875,1.09375 -0.60938,2.1875 z m 0.95312,-7.45313 1.04688,-2.1875 h 1.84375 l -1.71875,2.1875 z m 13.03125,7.65625 v -1.34375 h 4.85938 v 4.25 q -1.125,0.89063 -2.3125,1.34375 -1.1875,0.45313 -2.4375,0.45313 -1.6875,0 -3.0625,-0.71875 -1.375,-0.73438 -2.07813,-2.09375 -0.70312,-1.375 -0.70312,-3.0625 0,-1.67188 0.6875,-3.125 0.70312,-1.45313 2.01562,-2.15625 1.3125,-0.70313 3.03125,-0.70313 1.23438,0 2.23438,0.40625 1.01562,0.40625 1.57812,1.125 0.57813,0.71875 0.875,1.875 l -1.375,0.375 q -0.25,-0.875 -0.64062,-1.375 -0.375,-0.5 -1.09375,-0.79687 -0.70313,-0.3125 -1.57813,-0.3125 -1.03125,0 -1.79687,0.32812 -0.75,0.3125 -1.21875,0.82813 -0.46875,0.51562 -0.71875,1.125 -0.4375,1.0625 -0.4375,2.3125 0,1.53125 0.51562,2.5625 0.53125,1.03125 1.53125,1.53125 1.01563,0.5 2.15625,0.5 0.98438,0 1.92188,-0.375 0.9375,-0.39063 1.42187,-0.8125 v -2.14063 z m 14.60157,-6.95312 h 1.51562 v 6.60937 q 0,1.73438 -0.39062,2.75 -0.39063,1.01563 -1.40625,1.65625 -1.01563,0.64063 -2.67188,0.64063 -1.60937,0 -2.64062,-0.5625 -1.01563,-0.5625 -1.45313,-1.60938 -0.4375,-1.04687 -0.4375,-2.875 V 81.5563 h 1.51563 v 6.60937 q 0,1.48438 0.26562,2.20313 0.28125,0.70312 0.95313,1.09375 0.6875,0.375 1.65625,0.375 1.67187,0 2.375,-0.75 0.71875,-0.76563 0.71875,-2.92188 z m 2.77343,11.45312 4.40625,-11.45312 h 1.64063 l 4.6875,11.45312 h -1.73438 l -1.32812,-3.46875 h -4.79688 l -1.25,3.46875 z m 3.3125,-4.70312 h 3.89063 l -1.20313,-3.17188 q -0.54687,-1.45312 -0.8125,-2.375 -0.21875,1.09375 -0.60937,2.1875 z"
     fill-rule="nonzero"
     id="path71" />
  <path
     fill="#000000"
     fill-opacity="0"
     d="M 311.08137,107.2444 H 529.727"
     fill-rule="evenodd"
     id="path73" />
  <path
     stroke="#999999"
     stroke-width="1"
     stroke-linejoin="round"
     stroke-linecap="butt"
     d="M 311.08137,107.2444 H 529.727"
     fill-rule="evenodd"
     id="path75" />
  <g
     id="g36196"
     transform="translate(-241.30484,282.29691)">
    <rect
       style="font-variation-settings:normal;opacity:1;vector-effect:none;fill:#454545;fill-opacity:1;stroke:none;stroke-width:1;stroke-linecap:butt;stroke-linejoin:miter;stroke-miterlimit:10;stroke-dasharray:none;stroke-dashoffset:0;stroke-opacity:1;-inkscape-stroke:none;stop-color:#000000;stop-opacity:1"
       id="rect1685"
       width="80"
       height="120"
       x="380.03055"
       y="-131.47276"
       rx="5"
       ry="5" />
    <path
       id="rect6999"
       style="opacity:1;vector-effect:none;fill:#222222;fill-opacity:1;stroke-width:0.999997;stroke-linecap:butt;stop-color:#000000;stop-opacity:1"
       d="m 394.1813,-127.41922 h 51.69849 c 2.77,0 4.47928,1.84605 5,4 8.6781,35.896846 7.3317,70.331415 0,103.892906 -0.47294,2.164943 -2.23,4 -5,4 H 394.1813 c -2.77,0 -4.41344,-1.86304 -5,-4 -10.21052,-37.198794 -6.93253,-71.005388 0,-103.892906 0.45708,-2.16835 2.23,-4 5,-4 z"
       sodipodi:nodetypes="sssssssss" />
    <path
       id="path7391"
       style="opacity:1;vector-effect:none;fill:url(#linearGradient25119);fill-opacity:1;stroke-width:0.999997;stroke-linecap:butt;stop-color:#000000;stop-opacity:1"
       d="m 395.62752,-98.066406 c -2.71971,0 -4.46044,0.86966 -4.90922,1.90039 -4.27356,9.815267 -6.83451,19.803249 -6.35513,32.511027 0.47937,12.707778 1.05445,28.103182 5.3736,44.129598 0.57591,2.13696 2.18951,4 4.90922,4 h 50.75872 c 2.71971,0 4.44487,-1.835057 4.90923,-4 3.2735,-15.261841 4.0374,-30.708382 4.72458,-43.483624 0.68717,-12.775242 -0.55372,-22.838426 -5.7062,-33.157001 -0.51127,-1.023885 -2.18952,-1.90039 -4.90923,-1.90039 z"
       sodipodi:nodetypes="sscsssscsss" />
    <rect
       style="font-variation-settings:normal;opacity:1;vector-effect:none;fill:#ffffff;fill-opacity:1;stroke:none;stroke-width:1;stroke-linecap:butt;stroke-linejoin:miter;stroke-miterlimit:10;stroke-dasharray:none;stroke-dashoffset:0;stroke-opacity:1;-inkscape-stroke:none;stop-color:#000000;stop-opacity:1"
       id="rect29534"
       width="3.3032477"
       height="19.483843"
       x="418.59995"
       y="-92.543144"
       rx="1.4957803"
       ry="1.4957803" />
    <path
       id="path29656"
       style="opacity:1;vector-effect:none;fill:#ffffff;stroke-width:1;stroke-linecap:butt;stop-color:#000000;stop-opacity:1"
       d="m 419.7595,-53.745779 a 13.057076,13.057076 0 0 0 -13.05736,13.057353 13.057076,13.057076 0 0 0 13.05736,13.055955 13.057076,13.057076 0 0 0 13.05595,-13.055955 13.057076,13.057076 0 0 0 -13.05595,-13.057353 z m 0,2.456375 a 10.599938,10.599938 0 0 1 10.59957,10.600978 10.599938,10.599938 0 0 1 -10.59957,10.59958 10.599938,10.599938 0 0 1 -10.60098,-10.59958 10.599938,10.599938 0 0 1 10.60098,-10.600978 z" />
    <path
       id="path30487"
       style="opacity:1;vector-effect:none;fill:#8e8e8e;fill-opacity:1;stroke-width:0.999997;stroke-linecap:butt;stop-color:#000000;stop-opacity:1"
       d="m 449.75,-123.82031 -1.82617,25.517576 c 1.00078,0.403802 1.81999,0.943628 2.21484,1.734375 3.7818,7.573584 5.44172,15.069766 5.83594,23.484375 -0.0227,-16.423182 -1.85659,-33.106996 -5.9707,-50.124996 -0.0528,-0.21822 -0.17231,-0.40509 -0.25391,-0.61133 z" />
  </g>
  <g
     id="g36664"
     transform="translate(-54.980261,282.29691)">
    <rect
       style="font-variation-settings:normal;opacity:1;vector-effect:none;fill:#454545;fill-opacity:1;stroke:none;stroke-width:1;stroke-linecap:butt;stroke-linejoin:miter;stroke-miterlimit:10;stroke-dasharray:none;stroke-dashoffset:0;stroke-opacity:1;-inkscape-stroke:none;stop-color:#000000;stop-opacity:1"
       id="rect36652"
       width="80"
       height="120"
       x="380.03055"
       y="-131.47276"
       rx="5"
       ry="5" />
    <path
       id="path36654"
       style="opacity:1;vector-effect:none;fill:#222222;fill-opacity:1;stroke-width:0.999997;stroke-linecap:butt;stop-color:#000000;stop-opacity:1"
       d="m 394.1813,-127.41922 h 51.69849 c 2.77,0 4.47928,1.84605 5,4 8.6781,35.896846 7.3317,70.331415 0,103.892906 -0.47294,2.164943 -2.23,4 -5,4 H 394.1813 c -2.77,0 -4.41344,-1.86304 -5,-4 -10.21052,-37.198794 -6.93253,-71.005388 0,-103.892906 0.45708,-2.16835 2.23,-4 5,-4 z"
       sodipodi:nodetypes="sssssssss" />
    <path
       id="path36656"
       style="opacity:1;vector-effect:none;fill:url(#linearGradient36666);fill-opacity:1;stroke-width:0.999997;stroke-linecap:butt;stop-color:#000000;stop-opacity:1"
       d="m 395.62752,-98.066406 c -2.71971,0 -4.46044,0.86966 -4.90922,1.90039 -4.27356,9.815267 -6.83451,19.803249 -6.35513,32.511027 0.47937,12.707778 1.05445,28.103182 5.3736,44.129598 0.57591,2.13696 2.18951,4 4.90922,4 h 50.75872 c 2.71971,0 4.44487,-1.835057 4.90923,-4 3.2735,-15.261841 4.0374,-30.708382 4.72458,-43.483624 0.68717,-12.775242 -0.55372,-22.838426 -5.7062,-33.157001 -0.51127,-1.023885 -2.18952,-1.90039 -4.90923,-1.90039 z"
       sodipodi:nodetypes="sscsssscsss" />
    <rect
       style="font-variation-settings:normal;opacity:1;vector-effect:none;fill:#ffffff;fill-opacity:1;stroke:none;stroke-width:1;stroke-linecap:butt;stroke-linejoin:miter;stroke-miterlimit:10;stroke-dasharray:none;stroke-dashoffset:0;stroke-opacity:1;-inkscape-stroke:none;stop-color:#000000;stop-opacity:1"
       id="rect36658"
       width="3.3032477"
       height="19.483843"
       x="418.59995"
       y="-92.543144"
       rx="1.4957803"
       ry="1.4957803" />
    <path
       id="path36660"
       style="opacity:1;vector-effect:none;fill:#ffffff;stroke-width:1;stroke-linecap:butt;stop-color:#000000;stop-opacity:1"
       d="m 419.7595,-53.745779 a 13.057076,13.057076 0 0 0 -13.05736,13.057353 13.057076,13.057076 0 0 0 13.05736,13.055955 13.057076,13.057076 0 0 0 13.05595,-13.055955 13.057076,13.057076 0 0 0 -13.05595,-13.057353 z m 0,2.456375 a 10.599938,10.599938 0 0 1 10.59957,10.600978 10.599938,10.599938 0 0 1 -10.59957,10.59958 10.599938,10.599938 0 0 1 -10.60098,-10.59958 10.599938,10.599938 0 0 1 10.60098,-10.600978 z" />
    <path
       id="path36662"
       style="opacity:1;vector-effect:none;fill:#8e8e8e;fill-opacity:1;stroke-width:0.999997;stroke-linecap:butt;stop-color:#000000;stop-opacity:1"
       d="m 449.75,-123.82031 -1.82617,25.517576 c 1.00078,0.403802 1.81999,0.943628 2.21484,1.734375 3.7818,7.573584 5.44172,15.069766 5.83594,23.484375 -0.0227,-16.423182 -1.85659,-33.106996 -5.9707,-50.124996 -0.0528,-0.21822 -0.17231,-0.40509 -0.25391,-0.61133 z" />
  </g>
  <g
     id="g36680"
     transform="translate(53.431739,282.29691)">
    <rect
       style="font-variation-settings:normal;opacity:1;vector-effect:none;fill:#454545;fill-opacity:1;stroke:none;stroke-width:1;stroke-linecap:butt;stroke-linejoin:miter;stroke-miterlimit:10;stroke-dasharray:none;stroke-dashoffset:0;stroke-opacity:1;-inkscape-stroke:none;stop-color:#000000;stop-opacity:1"
       id="rect36668"
       width="80"
       height="120"
       x="380.03055"
       y="-131.47276"
       rx="5"
       ry="5" />
    <path
       id="path36670"
       style="opacity:1;vector-effect:none;fill:#222222;fill-opacity:1;stroke-width:0.999997;stroke-linecap:butt;stop-color:#000000;stop-opacity:1"
       d="m 394.1813,-127.41922 h 51.69849 c 2.77,0 4.47928,1.84605 5,4 8.6781,35.896846 7.3317,70.331415 0,103.892906 -0.47294,2.164943 -2.23,4 -5,4 H 394.1813 c -2.77,0 -4.41344,-1.86304 -5,-4 -10.21052,-37.198794 -6.93253,-71.005388 0,-103.892906 0.45708,-2.16835 2.23,-4 5,-4 z"
       sodipodi:nodetypes="sssssssss" />
    <path
       id="path36672"
       style="opacity:1;vector-effect:none;fill:url(#linearGradient36682);fill-opacity:1;stroke-width:0.999997;stroke-linecap:butt;stop-color:#000000;stop-opacity:1"
       d="m 395.62752,-98.066406 c -2.71971,0 -4.46044,0.86966 -4.90922,1.90039 -4.27356,9.815267 -6.83451,19.803249 -6.35513,32.511027 0.47937,12.707778 1.05445,28.103182 5.3736,44.129598 0.57591,2.13696 2.18951,4 4.90922,4 h 50.75872 c 2.71971,0 4.44487,-1.835057 4.90923,-4 3.2735,-15.261841 4.0374,-30.708382 4.72458,-43.483624 0.68717,-12.775242 -0.55372,-22.838426 -5.7062,-33.157001 -0.51127,-1.023885 -2.18952,-1.90039 -4.90923,-1.90039 z"
       sodipodi:nodetypes="sscsssscsss" />
    <rect
       style="font-variation-settings:normal;opacity:1;vector-effect:none;fill:#ffffff;fill-opacity:1;stroke:none;stroke-width:1;stroke-linecap:butt;stroke-linejoin:miter;stroke-miterlimit:10;stroke-dasharray:none;stroke-dashoffset:0;stroke-opacity:1;-inkscape-stroke:none;stop-color:#000000;stop-opacity:1"
       id="rect36674"
       width="3.3032477"
       height="19.483843"
       x="418.59995"
       y="-92.543144"
       rx="1.4957803"
       ry="1.4957803" />
    <path
       id="path36676"
       style="opacity:1;vector-effect:none;fill:#ffffff;stroke-width:1;stroke-linecap:butt;stop-color:#000000;stop-opacity:1"
       d="m 419.7595,-53.745779 a 13.057076,13.057076 0 0 0 -13.05736,13.057353 13.057076,13.057076 0 0 0 13.05736,13.055955 13.057076,13.057076 0 0 0 13.05595,-13.055955 13.057076,13.057076 0 0 0 -13.05595,-13.057353 z m 0,2.456375 a 10.599938,10.599938 0 0 1 10.59957,10.600978 10.599938,10.599938 0 0 1 -10.59957,10.59958 10.599938,10.599938 0 0 1 -10.60098,-10.59958 10.599938,10.599938 0 0 1 10.60098,-10.600978 z" />
    <path
       id="path36678"
       style="opacity:1;vector-effect:none;fill:#8e8e8e;fill-opacity:1;stroke-width:0.999997;stroke-linecap:butt;stop-color:#000000;stop-opacity:1"
       d="m 449.75,-123.82031 -1.82617,25.517576 c 1.00078,0.403802 1.81999,0.943628 2.21484,1.734375 3.7818,7.573584 5.44172,15.069766 5.83594,23.484375 -0.0227,-16.423182 -1.85659,-33.106996 -5.9707,-50.124996 -0.0528,-0.21822 -0.17231,-0.40509 -0.25391,-0.61133 z" />
  </g>
  <g
     id="g36696"
     transform="translate(241.60942,282.29691)">
    <rect
       style="font-variation-settings:normal;opacity:1;vector-effect:none;fill:#454545;fill-opacity:1;stroke:none;stroke-width:1;stroke-linecap:butt;stroke-linejoin:miter;stroke-miterlimit:10;stroke-dasharray:none;stroke-dashoffset:0;stroke-opacity:1;-inkscape-stroke:none;stop-color:#000000;stop-opacity:1"
       id="rect36684"
       width="80"
       height="120"
       x="380.03055"
       y="-131.47276"
       rx="5"
       ry="5" />
    <path
       id="path36686"
       style="opacity:1;vector-effect:none;fill:#222222;fill-opacity:1;stroke-width:0.999997;stroke-linecap:butt;stop-color:#000000;stop-opacity:1"
       d="m 394.1813,-127.41922 h 51.69849 c 2.77,0 4.47928,1.84605 5,4 8.6781,35.896846 7.3317,70.331415 0,103.892906 -0.47294,2.164943 -2.23,4 -5,4 H 394.1813 c -2.77,0 -4.41344,-1.86304 -5,-4 -10.21052,-37.198794 -6.93253,-71.005388 0,-103.892906 0.45708,-2.16835 2.23,-4 5,-4 z"
       sodipodi:nodetypes="sssssssss" />
    <path
       id="path36688"
       style="opacity:1;vector-effect:none;fill:url(#linearGradient36698);fill-opacity:1;stroke-width:0.999997;stroke-linecap:butt;stop-color:#000000;stop-opacity:1"
       d="m 395.62752,-98.066406 c -2.71971,0 -4.46044,0.86966 -4.90922,1.90039 -4.27356,9.815267 -6.83451,19.803249 -6.35513,32.511027 0.47937,12.707778 1.05445,28.103182 5.3736,44.129598 0.57591,2.13696 2.18951,4 4.90922,4 h 50.75872 c 2.71971,0 4.44487,-1.835057 4.90923,-4 3.2735,-15.261841 4.0374,-30.708382 4.72458,-43.483624 0.68717,-12.775242 -0.55372,-22.838426 -5.7062,-33.157001 -0.51127,-1.023885 -2.18952,-1.90039 -4.90923,-1.90039 z"
       sodipodi:nodetypes="sscsssscsss" />
    <rect
       style="font-variation-settings:normal;opacity:1;vector-effect:none;fill:#ffffff;fill-opacity:1;stroke:none;stroke-width:1;stroke-linecap:butt;stroke-linejoin:miter;stroke-miterlimit:10;stroke-dasharray:none;stroke-dashoffset:0;stroke-opacity:1;-inkscape-stroke:none;stop-color:#000000;stop-opacity:1"
       id="rect36690"
       width="3.3032477"
       height="19.483843"
       x="418.59995"
       y="-92.543144"
       rx="1.4957803"
       ry="1.4957803" />
    <path
       id="path36692"
       style="opacity:1;vector-effect:none;fill:#ffffff;stroke-width:1;stroke-linecap:butt;stop-color:#000000;stop-opacity:1"
       d="m 419.7595,-53.745779 a 13.057076,13.057076 0 0 0 -13.05736,13.057353 13.057076,13.057076 0 0 0 13.05736,13.055955 13.057076,13.057076 0 0 0 13.05595,-13.055955 13.057076,13.057076 0 0 0 -13.05595,-13.057353 z m 0,2.456375 a 10.599938,10.599938 0 0 1 10.59957,10.600978 10.599938,10.599938 0 0 1 -10.59957,10.59958 10.599938,10.599938 0 0 1 -10.60098,-10.59958 10.599938,10.599938 0 0 1 10.60098,-10.600978 z" />
    <path
       id="path36694"
       style="opacity:1;vector-effect:none;fill:#8e8e8e;fill-opacity:1;stroke-width:0.999997;stroke-linecap:butt;stop-color:#000000;stop-opacity:1"
       d="m 449.75,-123.82031 -1.82617,25.517576 c 1.00078,0.403802 1.81999,0.943628 2.21484,1.734375 3.7818,7.573584 5.44172,15.069766 5.83594,23.484375 -0.0227,-16.423182 -1.85659,-33.106996 -5.9707,-50.124996 -0.0528,-0.21822 -0.17231,-0.40509 -0.25391,-0.61133 z" />
  </g>
</svg>
